<?xml version="1.0" encoding="UTF-8"?>
<svg version="1.1" xmlns="http://www.w3.org/2000/svg" width="362" height="356">
<path d="M0 0 C1.98684692 -0.32279968 1.98684692 -0.32279968 4.44970703 -0.2487793 C5.37051056 -0.22853195 6.29131409 -0.20828461 7.24002075 -0.18742371 C8.23589203 -0.15006607 9.23176331 -0.11270844 10.2578125 -0.07421875 C11.78509476 -0.03455742 11.78509476 -0.03455742 13.3432312 0.00590515 C16.60440351 0.09387557 19.86448794 0.20295331 23.125 0.3125 C25.33199191 0.37573713 27.53902355 0.43760388 29.74609375 0.49804688 C35.16462414 0.64944936 40.58240901 0.81819876 46 1 C45.40556112 9.17381102 43.91454861 17.07972963 42.27734375 25.1015625 C42.00930665 26.43239975 41.74170052 27.76332386 41.47450256 29.09432983 C40.77680968 32.56388336 40.0733456 36.03224114 39.36859131 39.50036621 C38.64777428 43.05291341 37.93253449 46.60658288 37.21679688 50.16015625 C35.81659349 57.10786673 34.41027801 64.05432688 33 71 C34.27641357 70.98428955 35.55282715 70.9685791 36.86791992 70.95239258 C41.61085684 70.89802619 46.3537663 70.86362537 51.09692383 70.83520508 C53.14840326 70.82013378 55.19985056 70.79967318 57.2512207 70.77368164 C60.20271748 70.73722576 63.15378763 70.72025694 66.10546875 70.70703125 C67.47761787 70.68380547 67.47761787 70.68380547 68.87748718 70.66011047 C73.72666191 70.65883358 77.09458196 70.77237773 81 74 C84.2284511 80.4569022 82.07945694 91.36051566 80 98 C78.20008428 101.0437113 76.21958314 103.39020843 73 105 C71.4892243 105.11805177 69.97361169 105.17696449 68.45849609 105.20532227 C67.51767181 105.22526749 66.57684753 105.24521271 65.60751343 105.26576233 C64.58976837 105.28247482 63.57202332 105.29918732 62.5234375 105.31640625 C61.48305328 105.33718735 60.44266907 105.35796844 59.37075806 105.37937927 C56.03890751 105.44489872 52.7069765 105.50377092 49.375 105.5625 C47.11978326 105.60568294 44.86457473 105.64929715 42.609375 105.69335938 C37.07300236 105.80058252 31.53654922 105.90234446 26 106 C25.83420189 106.83565239 25.83420189 106.83565239 25.66505432 107.68818665 C24.51559608 113.47968071 23.36344396 119.27063417 22.2097168 125.0612793 C21.77933562 127.2232507 21.34964453 129.38535959 20.9206543 131.54760742 C20.30438141 134.65319531 19.68563908 137.75828239 19.06640625 140.86328125 C18.87470352 141.83211746 18.68300079 142.80095367 18.48548889 143.79914856 C18.30537766 144.6998558 18.12526642 145.60056305 17.93969727 146.52856445 C17.78203384 147.32132278 17.62437042 148.11408112 17.46192932 148.93086243 C17 151 17 151 16 154 C16.61752136 153.99333817 17.23504272 153.98667633 17.87127686 153.97981262 C24.29499102 153.91347269 30.71860795 153.86820492 37.14257812 153.83520508 C39.54040479 153.82011318 41.93820383 153.7996375 44.3359375 153.77368164 C47.78131933 153.73731689 51.22633637 153.72027752 54.671875 153.70703125 C55.74491882 153.69154739 56.81796265 153.67606354 57.92352295 153.66011047 C58.92425842 153.65988388 59.9249939 153.65965729 60.95605469 153.65942383 C61.83541687 153.65276199 62.71477905 153.64610016 63.62078857 153.63923645 C66.55292359 154.08384067 67.89154361 154.9328631 70 157 C71.5027642 162.9108725 70.89576109 168.2739601 69.9375 174.25 C69.84138428 174.93537842 69.74526855 175.62075684 69.64624023 176.3269043 C68.95411099 180.08162531 67.95781886 182.43934168 65.12890625 184.921875 C60.95173022 187.69622912 57.99620434 188.12627888 53.04785156 188.11352539 C52.06713684 188.11344986 51.08642212 188.11337433 50.07598877 188.11329651 C49.02481873 188.10813522 47.97364868 188.10297394 46.890625 188.09765625 C45.80867859 188.0962413 44.72673218 188.09482635 43.61199951 188.09336853 C40.1579715 188.08777318 36.70400841 188.0752215 33.25 188.0625 C30.90755302 188.0574844 28.56510502 188.0529216 26.22265625 188.04882812 C20.4817487 188.03780528 14.74087899 188.02107174 9 188 C8.86722656 188.92683594 8.73445312 189.85367188 8.59765625 190.80859375 C8.42105469 192.00613281 8.24445313 193.20367187 8.0625 194.4375 C7.88847656 195.63246094 7.71445313 196.82742187 7.53515625 198.05859375 C7 201 7 201 6 202 C4.29227642 202.08713831 2.58101351 202.10700007 0.87109375 202.09765625 C-0.68061523 202.09282227 -0.68061523 202.09282227 -2.26367188 202.08789062 C-3.35228516 202.07951172 -4.44089844 202.07113281 -5.5625 202.0625 C-7.2012207 202.05573242 -7.2012207 202.05573242 -8.87304688 202.04882812 C-11.58208495 202.03699826 -14.29101599 202.02051543 -17 202 C-18 198 -18 198 -17 188 C-43.4 188 -69.8 188 -97 188 C-97.33 190.97 -97.66 193.94 -98 197 C-98.66 198.65 -99.32 200.3 -100 202 C-107.59 202 -115.18 202 -123 202 C-124.41778293 199.16443413 -123.86257622 197.0091294 -123.5625 193.875 C-123.46066406 192.77929688 -123.35882813 191.68359375 -123.25390625 190.5546875 C-123.12822266 189.29011719 -123.12822266 189.29011719 -123 188 C-124.11087227 188.00666183 -124.11087227 188.00666183 -125.2441864 188.01345825 C-132.23277642 188.05357772 -139.22134917 188.08400615 -146.21002483 188.10362434 C-149.80274568 188.11404941 -153.39537115 188.12818516 -156.98803711 188.15087891 C-160.45693203 188.17265303 -163.92573537 188.18457823 -167.39469337 188.18975449 C-169.35834908 188.19523334 -171.32196808 188.21083903 -173.28556824 188.22659302 C-174.4864357 188.22674408 -175.68730316 188.22689514 -176.92456055 188.22705078 C-177.97935104 188.231492 -179.03414154 188.23593323 -180.12089539 188.24050903 C-184.01670082 187.91506883 -186.88875411 186.99628942 -189.8125 184.375 C-191.55979646 180.88040708 -191.33393002 177.78652794 -191 174 C-190.9071875 172.94425781 -190.814375 171.88851562 -190.71875 170.80078125 C-189.913662 164.01172183 -189.15859587 159.64273628 -184 155 C-181.27521848 153.63760924 -179.13159145 153.88030042 -176.08154297 153.88647461 C-174.21983963 153.88658791 -174.21983963 153.88658791 -172.32052612 153.88670349 C-170.96107951 153.8918105 -169.60163331 153.8970265 -168.2421875 153.90234375 C-166.85499116 153.90420858 -165.46779416 153.90563218 -164.08059692 153.90663147 C-160.42765488 153.91045152 -156.77475252 153.92027745 -153.12182617 153.93133545 C-149.39502499 153.94156056 -145.66821741 153.94613145 -141.94140625 153.95117188 C-134.62758606 153.96190017 -127.31379859 153.97897046 -120 154 C-119.91435791 152.8354126 -119.82871582 151.6708252 -119.74047852 150.47094727 C-119.41972907 146.11535343 -119.09677932 141.75992496 -118.77319336 137.40454102 C-118.63392892 135.52600412 -118.49524675 133.64742396 -118.35717773 131.76879883 C-118.15765127 129.05538298 -117.95597256 126.342134 -117.75390625 123.62890625 C-117.6934462 122.80040665 -117.63298615 121.97190704 -117.57069397 121.11830139 C-117.16662963 115.72857224 -116.62373885 110.36886154 -116 105 C-116.71552536 105.00888245 -117.43105072 105.01776489 -118.16825867 105.0269165 C-124.92133444 105.10716473 -131.67427657 105.16801602 -138.42772198 105.20724869 C-141.89953184 105.22809712 -145.37094673 105.25636295 -148.8425293 105.30175781 C-152.83646369 105.35365439 -156.82998515 105.37296773 -160.82421875 105.390625 C-162.68852791 105.42159271 -162.68852791 105.42159271 -164.59049988 105.45318604 C-165.75132584 105.45348816 -166.91215179 105.45379028 -168.1081543 105.45410156 C-169.63704536 105.46742523 -169.63704536 105.46742523 -171.19682312 105.48101807 C-174.76775986 104.86825435 -176.43471007 103.51147466 -179 101 C-180.61447153 96.05701448 -179.71641672 91.43742583 -178.8125 86.4375 C-178.69841797 85.69564453 -178.58433594 84.95378906 -178.46679688 84.18945312 C-177.64037436 79.47842529 -176.51716469 76.45286551 -173 73 C-169.74281658 70.96062449 -167.2152409 70.7557872 -163.40527344 70.77294922 C-161.72398346 70.77317581 -161.72398346 70.77317581 -160.00872803 70.77340698 C-158.20229828 70.78889084 -158.20229828 70.78889084 -156.359375 70.8046875 C-154.50339691 70.80893234 -154.50339691 70.80893234 -152.60992432 70.81326294 C-149.32848459 70.822558 -146.04724246 70.84051295 -142.76586914 70.8626709 C-139.41424378 70.88316952 -136.06260993 70.89210276 -132.7109375 70.90234375 C-126.14054777 70.9243997 -119.57029004 70.95787418 -113 71 C-112.92652344 69.49360962 -112.92652344 69.49360962 -112.8515625 67.95678711 C-112.21980822 55.57610721 -111.28372252 43.22659784 -110.27050781 30.87182617 C-109.99618334 27.5158079 -109.72843194 24.15930319 -109.4609375 20.80273438 C-109.28685212 18.66142628 -109.11238751 16.52014898 -108.9375 14.37890625 C-108.81870483 12.87910973 -108.81870483 12.87910973 -108.69750977 11.34901428 C-108.62072998 10.42632248 -108.5439502 9.50363068 -108.46484375 8.55297852 C-108.399021 7.7434523 -108.33319824 6.93392609 -108.26538086 6.09986877 C-108 4 -108 4 -107 1 C-91.49 1 -75.98 1 -60 1 C-61.125 12.25 -61.125 12.25 -62.21508789 17.64306641 C-62.45526138 18.84355621 -62.69543488 20.04404602 -62.94288635 21.28091431 C-63.32887245 23.17213516 -63.32887245 23.17213516 -63.72265625 25.1015625 C-63.99069335 26.43239975 -64.25829948 27.76332386 -64.52549744 29.09432983 C-65.22319032 32.56388336 -65.9266544 36.03224114 -66.63140869 39.50036621 C-67.35222572 43.05291341 -68.06746551 46.60658288 -68.78320312 50.16015625 C-70.18340651 57.10786673 -71.58972199 64.05432688 -73 71 C-72.4233812 70.96741592 -71.84676239 70.93483185 -71.25267029 70.90126038 C-56.48007668 70.09397058 -41.84654767 69.98996221 -27.0625 70.4375 C-25.09572305 70.49097241 -23.12892596 70.54370889 -21.16210938 70.59570312 C-16.44113255 70.72205382 -11.72053467 70.85812337 -7 71 C-6.95029053 69.92427734 -6.90058105 68.84855469 -6.84936523 67.74023438 C-6.23746707 55.07352913 -5.34237424 42.43664965 -4.32543945 29.79638672 C-4.05846993 26.44947632 -3.80371954 23.10175555 -3.54882812 19.75390625 C-3.37835216 17.61712769 -3.20715606 15.48040644 -3.03515625 13.34375 C-2.92410301 11.84865906 -2.92410301 11.84865906 -2.81080627 10.32336426 C-2.73410202 9.40390015 -2.65739777 8.48443604 -2.57836914 7.53710938 C-2.48296593 6.32734436 -2.48296593 6.32734436 -2.38563538 5.09313965 C-2 3 -2 3 0 0 Z M-80 105 C-81.81773212 111.66501777 -83.54147658 118.12739208 -84.82421875 124.87890625 C-84.97534622 125.6576561 -85.12647369 126.43640594 -85.28218079 127.23875427 C-85.59577588 128.85906521 -85.90739122 130.47976055 -86.21704102 132.10083008 C-86.69268732 134.5896426 -87.17496494 137.07710461 -87.65820312 139.56445312 C-87.96392341 141.14836386 -88.26927582 142.73234566 -88.57421875 144.31640625 C-88.71792404 145.05903214 -88.86162933 145.80165802 -89.00968933 146.56678772 C-89.74224525 150.25725317 -89.74224525 150.25725317 -90 154 C-64.92 154 -39.84 154 -14 154 C-12.259621 139.23106403 -12.259621 139.23106403 -10.875 124.4375 C-10.74544922 122.93606445 -10.74544922 122.93606445 -10.61328125 121.40429688 C-10.49146484 119.93379883 -10.49146484 119.93379883 -10.3671875 118.43359375 C-10.29612793 117.57822021 -10.22506836 116.72284668 -10.15185547 115.84155273 C-9.95898387 112.23249729 -10 108.6142054 -10 105 C-33.1 105 -56.2 105 -80 105 Z " fill="#F58B10" transform="translate(242,45)"/>
<path d="M0 0 C15.51 0 31.02 0 47 0 C46.20702297 7.92977032 45.08269688 15.51778147 43.52587891 23.29711914 C43.12262682 25.32443096 42.73493698 27.35434993 42.34765625 29.38476562 C42.09113281 30.67705078 41.83460938 31.96933594 41.5703125 33.30078125 C41.22637451 35.05128784 41.22637451 35.05128784 40.87548828 36.8371582 C39.99632569 40.01327403 38.78183515 42.25124978 37 45 C34.32463544 53.08554623 33.15325578 61.58801669 32 70 C30.68 70 29.36 70 28 70 C28.185625 71.093125 28.37125 72.18625 28.5625 73.3125 C29 77 29 77 28 80 C27.34 80 26.68 80 26 80 C26 81.65 26 83.3 26 85 C26.66 85 27.32 85 28 85 C28.19117513 91.55928458 27.56717047 97.40941397 26.1875 103.8125 C26.00517822 104.68688721 25.82285645 105.56127441 25.63500977 106.4621582 C23.75520264 115.37166933 21.82312962 124.21834441 18.6484375 132.76953125 C17.21339942 137.70571645 16.93355177 142.68065106 16.81103516 147.79541016 C16.48522478 159.23005118 14.10590027 170.05205478 11.61230469 181.18115234 C10.45496528 186.50915905 9.52519698 191.87751713 8.578125 197.24609375 C8 200 8 200 7 201 C5.29227642 201.08713831 3.58101351 201.10700007 1.87109375 201.09765625 C0.31938477 201.09282227 0.31938477 201.09282227 -1.26367188 201.08789062 C-2.35228516 201.07951172 -3.44089844 201.07113281 -4.5625 201.0625 C-6.2012207 201.05573242 -6.2012207 201.05573242 -7.87304688 201.04882812 C-10.58208495 201.03699826 -13.29101599 201.02051543 -16 201 C-17.41778293 198.16443413 -16.86257622 196.0091294 -16.5625 192.875 C-16.46066406 191.77929688 -16.35882813 190.68359375 -16.25390625 189.5546875 C-16.12822266 188.29011719 -16.12822266 188.29011719 -16 187 C-17.11087227 187.00666183 -17.11087227 187.00666183 -18.2441864 187.01345825 C-25.23277642 187.05357772 -32.22134917 187.08400615 -39.21002483 187.10362434 C-42.80274568 187.11404941 -46.39537115 187.12818516 -49.98803711 187.15087891 C-53.45693203 187.17265303 -56.92573537 187.18457823 -60.39469337 187.18975449 C-62.35834908 187.19523334 -64.32196808 187.21083903 -66.28556824 187.22659302 C-67.4864357 187.22674408 -68.68730316 187.22689514 -69.92456055 187.22705078 C-70.97935104 187.231492 -72.03414154 187.23593323 -73.12089539 187.24050903 C-77.01670082 186.91506883 -79.88875411 185.99628942 -82.8125 183.375 C-84.55979646 179.88040708 -84.33393002 176.78652794 -84 173 C-83.9071875 171.94425781 -83.814375 170.88851562 -83.71875 169.80078125 C-82.913662 163.01172183 -82.15859587 158.64273628 -77 154 C-74.27521848 152.63760924 -72.13159145 152.88030042 -69.08154297 152.88647461 C-67.21983963 152.88658791 -67.21983963 152.88658791 -65.32052612 152.88670349 C-63.96107951 152.8918105 -62.60163331 152.8970265 -61.2421875 152.90234375 C-59.85499116 152.90420858 -58.46779416 152.90563218 -57.08059692 152.90663147 C-53.42765488 152.91045152 -49.77475252 152.92027745 -46.12182617 152.93133545 C-42.39502499 152.94156056 -38.66821741 152.94613145 -34.94140625 152.95117188 C-27.62758606 152.96190017 -20.31379859 152.97897046 -13 153 C-12.91435791 151.8354126 -12.82871582 150.6708252 -12.74047852 149.47094727 C-12.41972907 145.11535343 -12.09677932 140.75992496 -11.77319336 136.40454102 C-11.63392892 134.52600412 -11.49524675 132.64742396 -11.35717773 130.76879883 C-11.15765127 128.05538298 -10.95597256 125.342134 -10.75390625 122.62890625 C-10.6934462 121.80040665 -10.63298615 120.97190704 -10.57069397 120.11830139 C-10.16662963 114.72857224 -9.62373885 109.36886154 -9 104 C-9.71552536 104.00888245 -10.43105072 104.01776489 -11.16825867 104.0269165 C-17.92133444 104.10716473 -24.67427657 104.16801602 -31.42772198 104.20724869 C-34.89953184 104.22809712 -38.37094673 104.25636295 -41.8425293 104.30175781 C-45.83646369 104.35365439 -49.82998515 104.37296773 -53.82421875 104.390625 C-55.68852791 104.42159271 -55.68852791 104.42159271 -57.59049988 104.45318604 C-58.75132584 104.45348816 -59.91215179 104.45379028 -61.1081543 104.45410156 C-62.63704536 104.46742523 -62.63704536 104.46742523 -64.19682312 104.48101807 C-67.76775986 103.86825435 -69.43471007 102.51147466 -72 100 C-73.61447153 95.05701448 -72.71641672 90.43742583 -71.8125 85.4375 C-71.69841797 84.69564453 -71.58433594 83.95378906 -71.46679688 83.18945312 C-70.64037436 78.47842529 -69.51716469 75.45286551 -66 72 C-62.74281658 69.96062449 -60.2152409 69.7557872 -56.40527344 69.77294922 C-54.72398346 69.77317581 -54.72398346 69.77317581 -53.00872803 69.77340698 C-51.20229828 69.78889084 -51.20229828 69.78889084 -49.359375 69.8046875 C-47.50339691 69.80893234 -47.50339691 69.80893234 -45.60992432 69.81326294 C-42.32848459 69.822558 -39.04724246 69.84051295 -35.76586914 69.8626709 C-32.41424378 69.88316952 -29.06260993 69.89210276 -25.7109375 69.90234375 C-19.14054777 69.9243997 -12.57029004 69.95787418 -6 70 C-5.92652344 68.49360962 -5.92652344 68.49360962 -5.8515625 66.95678711 C-5.21980822 54.57610721 -4.28372252 42.22659784 -3.27050781 29.87182617 C-2.99618334 26.5158079 -2.72843194 23.15930319 -2.4609375 19.80273438 C-2.28685212 17.66142628 -2.11238751 15.52014898 -1.9375 13.37890625 C-1.81870483 11.87910973 -1.81870483 11.87910973 -1.69750977 10.34901428 C-1.62072998 9.42632248 -1.5439502 8.50363068 -1.46484375 7.55297852 C-1.399021 6.7434523 -1.33319824 5.93392609 -1.26538086 5.09986877 C-1 3 -1 3 0 0 Z " fill="#F3880F" transform="translate(135,46)"/>
<path d="M0 0 C25.41 0 50.82 0 77 0 C77 11.0201835 75.95467427 22.0212459 75 33 C48.27 33 21.54 33 -6 33 C-4 22 -2 11 0 0 Z " fill="#252B39" transform="translate(151,199)"/>
<path d="M0 0 C1.86170334 0.0001133 1.86170334 0.0001133 3.76101685 0.00022888 C5.12046346 0.00533589 6.47990966 0.01055189 7.83935547 0.01586914 C9.22655181 0.01773397 10.61374881 0.01915757 12.00094604 0.02015686 C15.65388809 0.02397691 19.30679044 0.03380284 22.9597168 0.04486084 C26.68651797 0.05508595 30.41332556 0.05965684 34.14013672 0.06469727 C41.45395691 0.07542556 48.76774438 0.09249585 56.08154297 0.11352539 C56.0865397 1.85066434 56.09007884 3.58780752 56.09301758 5.32495117 C56.09621254 6.77600754 56.09621254 6.77600754 56.09947205 8.25637817 C56.07486903 12.17707297 55.88675343 16.07617763 55.64404297 19.98852539 C55.60472656 20.70782227 55.56541016 21.42711914 55.52490234 22.16821289 C55.30168551 25.90451921 54.85816947 29.45662926 54.08154297 33.11352539 C45.6757674 33.22939935 37.27032573 33.31822937 28.86394882 33.37258625 C24.96044446 33.3986757 21.05748666 33.43405999 17.15429688 33.49072266 C13.38710413 33.54506852 9.62043688 33.57495084 5.85288239 33.58791161 C4.41590348 33.59714713 2.97895322 33.61518267 1.54219818 33.64217567 C-0.47076849 33.67848857 -2.4842645 33.68056794 -4.49755859 33.68115234 C-5.64339417 33.6922554 -6.78922974 33.70335846 -7.9697876 33.71479797 C-10.91845703 33.11352539 -10.91845703 33.11352539 -13.29632568 30.79679871 C-15.51290281 27.13021384 -15.34546126 24.22590457 -14.91845703 20.11352539 C-14.82435547 19.05907227 -14.73025391 18.00461914 -14.63330078 16.91821289 C-13.83660226 10.1269381 -13.07718799 5.75638326 -7.91845703 1.11352539 C-5.19367551 -0.24886537 -3.05004848 -0.00617419 0 0 Z " fill="#293140" transform="translate(65.91845703125,198.886474609375)"/>
<path d="M0 0 C22.11 0 44.22 0 67 0 C66 24 66 24 65 32 C41.57 32 18.14 32 -6 32 C-4 17 -4 17 0 0 Z " fill="#242B38" transform="translate(168,117)"/>
<path d="M0 0 C1.16105255 0.00007553 2.3221051 0.00015106 3.51834106 0.00022888 C4.77669769 0.00539017 6.03505432 0.01055145 7.33154297 0.01586914 C8.61608368 0.01728409 9.90062439 0.01869904 11.22409058 0.02015686 C14.64029889 0.02397628 18.05646473 0.03380166 21.47265625 0.04486084 C24.95816473 0.05508732 28.44368006 0.05965713 31.92919922 0.06469727 C38.76906042 0.07542444 45.60889341 0.09249397 52.44873047 0.11352539 C52.55996114 7.96378427 52.38148104 15.62999528 51.44873047 23.42602539 C51.35333984 24.27358398 51.25794922 25.12114258 51.15966797 25.99438477 C50.92910874 28.03483396 50.68990558 30.07430372 50.44873047 32.11352539 C42.54716441 32.18301106 34.64572584 32.23632903 26.74392986 32.26896191 C23.07486371 32.28462345 19.40600646 32.30587014 15.73706055 32.33984375 C12.19684099 32.37242054 8.65682248 32.39037473 5.11646461 32.39815712 C3.10725392 32.40640464 1.09812419 32.42982677 -0.91096497 32.45341492 C-2.74252388 32.45375481 -2.74252388 32.45375481 -4.61108398 32.45410156 C-5.6880806 32.4607634 -6.76507721 32.46742523 -7.87471008 32.47428894 C-10.55126953 32.11352539 -10.55126953 32.11352539 -12.37492371 30.75801086 C-14.94259233 27.16851052 -14.66830922 23.17920055 -14.13330078 18.98461914 C-13.88734868 17.50496077 -13.63061573 16.02705873 -13.36376953 14.55102539 C-13.2496875 13.80916992 -13.13560547 13.06731445 -13.01806641 12.30297852 C-12.19013788 7.58336563 -11.01953188 4.62219468 -7.55126953 1.11352539 C-4.91411857 -0.20505009 -2.95294313 -0.00639165 0 0 Z " fill="#293140" transform="translate(76.55126953125,116.886474609375)"/>
<path d="M0 0 C7.18987257 -0.0760222 14.3796416 -0.12858815 21.56982422 -0.16479492 C24.01615268 -0.1798877 26.46245407 -0.20036402 28.90869141 -0.22631836 C32.42357057 -0.26267918 35.93809218 -0.27972161 39.453125 -0.29296875 C40.5480426 -0.30845261 41.64296021 -0.32393646 42.77105713 -0.33988953 C43.79181335 -0.34011612 44.81256958 -0.34034271 45.86425781 -0.34057617 C47.20994843 -0.35056892 47.20994843 -0.35056892 48.58282471 -0.36076355 C51.53960369 0.08053588 52.87795801 0.9126744 55 3 C56.5027642 8.9108725 55.89576109 14.2739601 54.9375 20.25 C54.79332642 21.27806763 54.79332642 21.27806763 54.64624023 22.3269043 C53.85725168 26.60707581 52.48245342 29.28829116 49.04243469 31.98269653 C44.63532701 34.17780512 39.63001489 33.5982844 34.8203125 33.48828125 C33.06846146 33.47766914 33.06846146 33.47766914 31.28121948 33.46684265 C27.56182007 33.43892017 23.84394217 33.37618052 20.125 33.3125 C17.59898012 33.28741459 15.07293657 33.26460185 12.546875 33.24414062 C6.36406679 33.18910025 0.18214211 33.10549322 -6 33 C-5.33020896 25.67849106 -3.98329403 18.62089577 -2.4375 11.4375 C-2.20353516 10.33341797 -1.96957031 9.22933594 -1.72851562 8.09179688 C-1.15618938 5.39368745 -0.57993998 2.69648125 0 0 Z " fill="#222936" transform="translate(257,199)"/>
<path d="M0 0 C4.47844751 2.74857508 7.88235879 7.26791872 9.8203125 12.1171875 C10.93292039 20.76039408 10.02718518 28.02130985 4.8203125 35.1171875 C-0.7049638 41.27272345 -6.32028358 45.36573797 -14.5859375 46.42578125 C-20.76834083 46.74062586 -26.03631943 45.66061474 -31.1796875 42.1171875 C-36.89649797 36.1481648 -38.51170976 31.13126584 -38.3828125 22.95703125 C-37.77613443 14.47520517 -33.39378656 8.73420231 -27.1796875 3.1171875 C-18.86921985 -2.26539297 -9.27264378 -3.94181213 0 0 Z " fill="#F3870D" transform="translate(242.1796875,282.8828125)"/>
<path d="M0 0 C4.93080278 2.84935734 8.50916518 7.06685299 10.625 12.375 C11.64465992 22.00248666 10.96505898 28.95492634 4.9296875 36.4921875 C-0.94185276 42.98178463 -7.59493257 46.40078741 -16.375 46.9375 C-23.21046584 46.63561823 -29.02208748 43.6690897 -33.875 38.9375 C-37.3924387 32.92854223 -38.19479748 27.23431814 -37.375 20.375 C-35.34029057 13.00374726 -30.74853613 6.15669761 -24.25 2.0234375 C-16.62099988 -1.87520594 -8.11770297 -3.72641222 0 0 Z " fill="#F3870C" transform="translate(135.375,282.625)"/>
<path d="M0 0 C0.90796829 -0.01283524 1.81593658 -0.02567047 2.75141907 -0.03889465 C4.23414558 -0.04997505 4.23414558 -0.04997505 5.74682617 -0.0612793 C6.7569426 -0.06935104 7.76705902 -0.07742279 8.80778503 -0.08573914 C10.95061517 -0.09959865 13.09346755 -0.11031241 15.23632812 -0.11816406 C18.51564373 -0.13537132 21.79395009 -0.17924053 25.07299805 -0.22338867 C27.15176665 -0.23351552 29.23054385 -0.24203165 31.30932617 -0.2487793 C32.29173782 -0.26628738 33.27414948 -0.28379547 34.28633118 -0.30183411 C41.08827896 -0.28014344 41.08827896 -0.28014344 44.34960938 2.05297852 C48.13496172 7.88898159 45.63035305 17.04648256 44.65307617 23.5715332 C43.36844207 27.18693803 41.83755471 29.92291606 38.72729492 32.17700195 C34.9873446 33.01597187 31.33668098 32.87592676 27.52026367 32.76293945 C25.89946648 32.75020493 25.89946648 32.75020493 24.2459259 32.73721313 C20.80119324 32.70367707 17.35881772 32.62839166 13.91479492 32.55200195 C11.57693815 32.52190288 9.23904461 32.49452698 6.90112305 32.4699707 C1.17571203 32.40388524 -4.54832813 32.30353341 -10.27270508 32.17700195 C-10.12363914 30.25077148 -9.97132262 28.32479237 -9.81762695 26.39892578 C-9.73315308 25.32637039 -9.6486792 24.253815 -9.56164551 23.14875793 C-9.24987501 19.94219443 -8.64935575 16.9634621 -7.77270508 13.86450195 C-6.88179221 10.56898929 -6.07638272 7.37743819 -5.64770508 3.98950195 C-5.06968203 -0.34567089 -4.03709571 0.0494981 0 0 Z " fill="#222836" transform="translate(278.272705078125,116.822998046875)"/>
<path d="M0 0 C15.51 0 31.02 0 47 0 C46.67 3.3 46.34 6.6 46 10 C45.67 10 45.34 10 45 10 C45 7.03 45 4.06 45 1 C23.715 1.99 23.715 1.99 2 3 C2 6.63 2 10.26 2 14 C1.67 14.33 1.34 14.66 1 15 C0.92755947 17.01964199 0.91622812 19.04167124 0.9375 21.0625 C0.94652344 22.16722656 0.95554687 23.27195312 0.96484375 24.41015625 C0.97644531 25.26480469 0.98804688 26.11945313 1 27 C1.99 26.505 1.99 26.505 3 26 C3 26.99 3 27.98 3 29 C3.66 29 4.32 29 5 29 C5.33 27.68 5.66 26.36 6 25 C6.66 25.33 7.32 25.66 8 26 C7.835 26.99 7.67 27.98 7.5 29 C6.82516493 34.0795018 6.99787699 39.16762226 7.21289062 44.27539062 C7.31372766 48.80428856 6.58612608 51.31493484 4 55 C3.29329272 57.69254991 3.29329272 57.69254991 3 60 C4.32 60 5.64 60 7 60 C10.75394322 70.76130389 10.75394322 70.76130389 9 75 C8.01 75.66 7.02 76.32 6 77 C5.74969023 79.58380177 5.74969023 79.58380177 6 82 C5.21625 82.0825 4.4325 82.165 3.625 82.25 C2.75875 82.4975 1.8925 82.745 1 83 C0.67 83.66 0.34 84.32 0 85 C-0.33 85.66 -0.66 86.32 -1 87 C-3.625 87.75 -3.625 87.75 -6 88 C-5.95875 89.258125 -5.9175 90.51625 -5.875 91.8125 C-5.8608377 96.86136025 -6.39950168 101.74825688 -7 106.75 C-7.86037996 114.13883878 -8.19244741 121.43657041 -8.1875 128.875 C-8.1884668 130.27443848 -8.1884668 130.27443848 -8.18945312 131.70214844 C-8.15546018 135.91881875 -8.07420866 139.89222608 -7 144 C-7.66 143.67 -8.32 143.34 -9 143 C-9.06058594 143.63808594 -9.12117188 144.27617187 -9.18359375 144.93359375 C-9.30927734 146.17302734 -9.30927734 146.17302734 -9.4375 147.4375 C-9.55931641 148.67306641 -9.55931641 148.67306641 -9.68359375 149.93359375 C-10 152 -10 152 -11 153 C-11.13432514 154.60585609 -11.2036639 156.21721944 -11.24609375 157.828125 C-11.29358765 159.35578491 -11.29358765 159.35578491 -11.34204102 160.91430664 C-11.37354248 162.01508545 -11.40504395 163.11586426 -11.4375 164.25 C-11.82730403 175.90791888 -12.78317139 187.39956727 -14 199 C-7.4 199 -0.8 199 6 199 C6.28875 197.205625 6.5775 195.41125 6.875 193.5625 C7.3671875 190.50390625 7.3671875 190.50390625 8 188 C8.66 187.67 9.32 187.34 10 187 C9.88437394 188.39664108 9.757008 189.79231199 9.625 191.1875 C9.52058594 192.35345703 9.52058594 192.35345703 9.4140625 193.54296875 C9 196 9 196 7 201 C-0.59 201 -8.18 201 -16 201 C-17 199 -17 199 -16 187 C-35.8 187 -55.6 187 -76 187 C-76 186.67 -76 186.34 -76 186 C-55.87 186 -35.74 186 -15 186 C-14.7525 181.00875 -14.505 176.0175 -14.25 170.875 C-13.07128428 148.53018987 -11.01374909 126.28548995 -9 104 C-28.14 104 -47.28 104 -67 104 C-67 103.67 -67 103.34 -67 103 C-47.53 103 -28.06 103 -8 103 C-8 99.04 -8 95.08 -8 91 C-7.01 81.1 -7.01 81.1 -6 71 C-24.48 71 -42.96 71 -62 71 C-62 70.67 -62 70.34 -62 70 C-43.52 70 -25.04 70 -6 70 C-5.67 64.06 -5.34 58.12 -5 52 C-4.70462256 47.87355858 -4.39928381 43.75170284 -4.0625 39.62890625 C-3.97750244 38.57388412 -3.89250488 37.518862 -3.80493164 36.43186951 C-3.62796717 34.24509284 -3.4498296 32.05841079 -3.27050781 29.87182617 C-2.99618334 26.5158079 -2.72843194 23.15930319 -2.4609375 19.80273438 C-2.28685212 17.66142628 -2.11238751 15.52014898 -1.9375 13.37890625 C-1.81870483 11.87910973 -1.81870483 11.87910973 -1.69750977 10.34901428 C-1.62072998 9.42632248 -1.5439502 8.50363068 -1.46484375 7.55297852 C-1.399021 6.7434523 -1.33319824 5.93392609 -1.26538086 5.09986877 C-1 3 -1 3 0 0 Z " fill="#F79114" transform="translate(135,46)"/>
<path d="M0 0 C0.33 0 0.66 0 1 0 C1.02688151 1.64574566 1.04634123 3.29161413 1.0625 4.9375 C1.07410156 5.85402344 1.08570313 6.77054688 1.09765625 7.71484375 C1 10 1 10 0 11 C-0.51663692 15.13309535 0.22550734 17.69552479 2.0625 21.3125 C4.40142469 26.13807094 4.12015822 29.84970729 3 35 C4.32 35 5.64 35 7 35 C7.33 36.98 7.66 38.96 8 41 C8.66 40.01 9.32 39.02 10 38 C12.0625 37.25 12.0625 37.25 14 37 C14.495 37.495 14.495 37.495 15 38 C15.33 36.35 15.66 34.7 16 33 C16.66 33 17.32 33 18 33 C18.22237334 38.46608005 17.46535546 43.10337016 16.0625 48.375 C15.88009766 49.09816406 15.69769531 49.82132813 15.50976562 50.56640625 C14.14560288 55.85439712 14.14560288 55.85439712 13 57 C12.77480313 58.93025889 12.55251748 60.86129442 12.37890625 62.796875 C12 65 12 65 10 70 C3.73 70 -2.54 70 -9 70 C-9.91357293 65.43213534 -10.11609566 61.30084907 -10.0625 56.6875 C-10.05798828 55.94693359 -10.05347656 55.20636719 -10.04882812 54.44335938 C-10.03712175 52.62887101 -10.01918898 50.81442466 -10 49 C-9.34 49 -8.68 49 -8 49 C-8.01047363 48.42032471 -8.02094727 47.84064941 -8.03173828 47.2434082 C-8.07348615 44.59981679 -8.09938538 41.95629495 -8.125 39.3125 C-8.14175781 38.40048828 -8.15851563 37.48847656 -8.17578125 36.54882812 C-8.24055271 27.64275291 -8.24055271 27.64275291 -6 24 C-5.01 23.67 -4.02 23.34 -3 23 C-2.95745644 21.00045254 -2.95919217 18.99958364 -3 17 C-3.33 16.67 -3.66 16.34 -4 16 C-4.07205511 14.31391034 -4.08386068 12.62499341 -4.0625 10.9375 C-4.05347656 10.01839844 -4.04445312 9.09929687 -4.03515625 8.15234375 C-4.02355469 7.44207031 -4.01195312 6.73179687 -4 6 C-3.34 6 -2.68 6 -2 6 C-1.34 4.02 -0.68 2.04 0 0 Z " fill="#EE7D0A" transform="translate(237,175)"/>
<path d="M0 0 C0.33 0 0.66 0 1 0 C1.17079577 14.68843615 0.641084 29.32667837 0 44 C-0.66 44 -1.32 44 -2 44 C-1.98839844 44.83402344 -1.97679687 45.66804688 -1.96484375 46.52734375 C-1.95582031 47.65269531 -1.94679688 48.77804688 -1.9375 49.9375 C-1.92589844 51.03964844 -1.91429687 52.14179688 -1.90234375 53.27734375 C-1.97273665 55.96072106 -2.14231494 58.44599893 -2.46875 61.09375 C-3.20342492 67.23125163 -3.35408849 73.38873609 -3.5625 79.5625 C-3.60568359 80.76197266 -3.64886719 81.96144531 -3.69335938 83.19726562 C-3.79856802 86.13141793 -3.90070883 89.0656425 -4 92 C-4.66 92 -5.32 92 -6 92 C-5.99476318 92.74161377 -5.98952637 93.48322754 -5.98413086 94.24731445 C-5.96336386 97.60236771 -5.9503407 100.95740744 -5.9375 104.3125 C-5.92912109 105.47974609 -5.92074219 106.64699219 -5.91210938 107.84960938 C-5.90888672 108.96787109 -5.90566406 110.08613281 -5.90234375 111.23828125 C-5.89710693 112.26993408 -5.89187012 113.30158691 -5.88647461 114.36450195 C-6 117 -6 117 -7 120 C-7.1464714 121.55266653 -7.24694074 123.10995662 -7.31640625 124.66796875 C-7.35830078 125.56064453 -7.40019531 126.45332031 -7.44335938 127.37304688 C-7.48267578 128.30181641 -7.52199219 129.23058594 -7.5625 130.1875 C-7.62727539 131.59805664 -7.62727539 131.59805664 -7.69335938 133.03710938 C-7.79938665 135.35792854 -7.90145029 137.67885325 -8 140 C-8.66 140 -9.32 140 -10 140 C-9.505 150.395 -9.505 150.395 -9 161 C-2.73 161 3.54 161 10 161 C10.63747422 157.81262888 11.13918023 154.94019511 11.4375 151.75 C11.623125 150.5125 11.80875 149.275 12 148 C14.46041687 146.76979157 15.97752653 146.914866 18.72509766 146.97827148 C19.70596344 146.99836777 20.68682922 147.01846405 21.69741821 147.03916931 C22.75891083 147.06620438 23.82040344 147.09323944 24.9140625 147.12109375 C25.99883881 147.14470474 27.08361511 147.16831573 28.20126343 147.19264221 C31.67597162 147.2693943 35.15046338 147.35336904 38.625 147.4375 C40.97655181 147.49070912 43.32811427 147.54344958 45.6796875 147.59570312 C51.45325977 147.72502503 57.22667048 147.8602819 63 148 C63 148.33 63 148.66 63 149 C46.83 149 30.66 149 14 149 C13.01 155.435 13.01 155.435 12 162 C11 163 11 163 8.77514648 163.11352539 C7.81680908 163.10828857 6.85847168 163.10305176 5.87109375 163.09765625 C4.31938477 163.09282227 4.31938477 163.09282227 2.73632812 163.08789062 C1.64771484 163.07951172 0.55910156 163.07113281 -0.5625 163.0625 C-2.2012207 163.05573242 -2.2012207 163.05573242 -3.87304688 163.04882812 C-6.58208495 163.03699826 -9.29101599 163.02051543 -12 163 C-13 159 -13 159 -12 149 C-38.4 149 -64.8 149 -92 149 C-92 148.67 -92 148.34 -92 148 C-65.27 148 -38.54 148 -11 148 C-11 144.37 -11 140.74 -11 137 C-10.88478838 134.69646848 -10.74114652 132.39400937 -10.55688477 130.0949707 C-10.4600087 128.8603157 -10.36313263 127.62566071 -10.26332092 126.35359192 C-10.15708908 125.0574144 -10.05085724 123.76123688 -9.94140625 122.42578125 C-9.83137188 121.04821856 -9.72167287 119.67062905 -9.61228943 118.29301453 C-9.38376387 115.42615926 -9.15239368 112.55955386 -8.91870117 109.69311523 C-8.62085252 106.03896112 -8.32841601 102.3843999 -8.03788853 98.72965717 C-7.81204952 95.8923682 -7.58425242 93.05523925 -7.35578728 90.21816063 C-7.19512713 88.22201195 -7.03536571 86.225791 -6.87562561 84.22956848 C-6.72558327 82.39177071 -6.72558327 82.39177071 -6.57250977 80.5168457 C-6.48590591 79.44860062 -6.39930206 78.38035553 -6.31007385 77.27973938 C-5.95380247 73.51135555 -5.46949475 69.75595802 -5 66 C-28.1 66 -51.2 66 -75 66 C-76.65 74.91 -78.3 83.82 -80 93 C-83.73333333 112.73333333 -83.73333333 112.73333333 -86 115 C-86.29019247 106.37483504 -85.47770676 99.05404934 -82.5625 90.9375 C-80.66671752 85.46926309 -79.76771755 79.82076067 -78.7578125 74.140625 C-78.06352061 70.25766617 -77.2333894 66.41275149 -76.375 62.5625 C-75.23881747 57.3693725 -74.4564163 52.29442905 -74 47 C-74.66 47 -75.32 47 -76 47 C-76 45.35 -76 43.7 -76 42 C-75.34 42 -74.68 42 -74 42 C-74 38.7 -74 35.4 -74 32 C-72.68 32 -71.36 32 -70 32 C-70.05220703 31.07380859 -70.05220703 31.07380859 -70.10546875 30.12890625 C-70.28156561 24.61959013 -69.73985105 20.26449995 -67.79296875 15.109375 C-67.04083828 13.10863386 -66.47154268 11.13031325 -65.9375 9.0625 C-65 6 -65 6 -63 4 C-64.22368509 13.47276226 -65.87705614 22.68735293 -68 32 C-66.25783203 31.87431641 -66.25783203 31.87431641 -64.48046875 31.74609375 C-43.66032092 30.46419124 -22.83100903 31.37391979 -2 32 C-1.90150757 30.07643677 -1.90150757 30.07643677 -1.80102539 28.11401367 C-1.71244508 26.40282982 -1.62381963 24.6916483 -1.53515625 22.98046875 C-1.49217407 22.13867065 -1.44919189 21.29687256 -1.40490723 20.42956543 C-1.0501037 13.60908653 -0.57427784 6.80580339 0 0 Z M-69 33 C-73.19297565 49.56990394 -73.19297565 49.56990394 -75 65 C-51.57 65 -28.14 65 -4 65 C-2.57386228 49.01701832 -2.57386228 49.01701832 -2 33 C-24.11 33 -46.22 33 -69 33 Z " fill="#AD7C4E" transform="translate(237,84)"/>
<path d="M0 0 C1.98684692 -0.32279968 1.98684692 -0.32279968 4.44970703 -0.2487793 C5.37051056 -0.22853195 6.29131409 -0.20828461 7.24002075 -0.18742371 C8.23589203 -0.15006607 9.23176331 -0.11270844 10.2578125 -0.07421875 C11.78509476 -0.03455742 11.78509476 -0.03455742 13.3432312 0.00590515 C16.60440351 0.09387557 19.86448794 0.20295331 23.125 0.3125 C25.33199191 0.37573713 27.53902355 0.43760388 29.74609375 0.49804688 C35.16462414 0.64944936 40.58240901 0.81819876 46 1 C45.40556112 9.17381102 43.91454861 17.07972963 42.27734375 25.1015625 C42.00930665 26.43239975 41.74170052 27.76332386 41.47450256 29.09432983 C40.77680968 32.56388336 40.0733456 36.03224114 39.36859131 39.50036621 C38.6477743 43.05291331 37.93248145 46.60657227 37.21679688 50.16015625 C35.81710246 57.10798816 34.40833914 64.05389294 33 71 C47.19 71 61.38 71 76 71 C76 71.33 76 71.66 76 72 C61.48 72.33 46.96 72.66 32 73 C31.34 76.3 30.68 79.6 30 83 C29.67 83 29.34 83 29 83 C28.9729957 81.54176788 28.95360213 80.08339325 28.9375 78.625 C28.92589844 77.81289062 28.91429687 77.00078125 28.90234375 76.1640625 C29 74 29 74 30 72 C30.2275015 70.12943209 30.40962811 68.25314042 30.5625 66.375 C30.64628906 65.37210937 30.73007812 64.36921875 30.81640625 63.3359375 C30.90728516 62.17964844 30.90728516 62.17964844 31 61 C31.66 61 32.32 61 33 61 C32.85769192 59.58297487 32.71099254 58.1663904 32.5625 56.75 C32.48128906 55.96109375 32.40007812 55.1721875 32.31640625 54.359375 C32.05323477 52.0266442 32.05323477 52.0266442 31.44921875 49.91015625 C30.41434505 45.50969328 31.77171006 41.51136946 33.5625 37.5 C35.59881624 32.54201263 35.58869637 28.87024309 33.984375 23.7734375 C32.9245538 19.71078955 32.83385696 16.31217869 32.9375 12.125 C32.99093765 9.75050986 33.02072943 7.37500091 33 5 C30.35459403 2.35459403 22.62595815 3.81437847 19.0625 3.8125 C17.84369141 3.80025391 16.62488281 3.78800781 15.36914062 3.77539062 C14.20705078 3.77345703 13.04496094 3.77152344 11.84765625 3.76953125 C10.77523682 3.76542236 9.70281738 3.76131348 8.59790039 3.75708008 C5.83814396 3.73638677 5.83814396 3.73638677 4 6 C4.061875 7.2065625 4.061875 7.2065625 4.125 8.4375 C4.08375 9.283125 4.0425 10.12875 4 11 C2.68212715 12.02028865 1.34789347 13.01971384 0 14 C-1.4456778 18.99415967 -1.33110092 24.30196691 -1.51757812 29.46875 C-1.60829277 31.31727479 -1.79631037 33.16049366 -2 35 C-2.99 35.495 -2.99 35.495 -4 36 C-3.1288092 16.06625803 -3.1288092 16.06625803 -2.5625 7.875 C-2.50191406 6.98554687 -2.44132813 6.09609375 -2.37890625 5.1796875 C-2 3 -2 3 0 0 Z " fill="#F48811" transform="translate(242,45)"/>
<path d="M0 0 C0.33 0 0.66 0 1 0 C1.30418195 10.24079217 0.64459098 20.28760467 -0.21606445 30.48950195 C-1.02341673 40.41115474 -1.40219342 50.32612286 -1.65795898 60.27612305 C-1.70545288 61.96668823 -1.70545288 61.96668823 -1.75390625 63.69140625 C-1.78979858 65.19489624 -1.78979858 65.19489624 -1.82641602 66.72875977 C-2 69 -2 69 -3 70 C-3.70130331 74.87214296 -4.10540711 79.78672921 -4.5625 84.6875 C-4.63069946 85.40886139 -4.69889893 86.13022278 -4.76916504 86.8734436 C-7.19739851 108.03949265 -7.19739851 108.03949265 -5 129 C-5.66 128.67 -6.32 128.34 -7 128 C-7.06058594 128.63808594 -7.12117188 129.27617187 -7.18359375 129.93359375 C-7.30927734 131.17302734 -7.30927734 131.17302734 -7.4375 132.4375 C-7.55931641 133.67306641 -7.55931641 133.67306641 -7.68359375 134.93359375 C-8 137 -8 137 -9 138 C-9.13432514 139.60585609 -9.2036639 141.21721944 -9.24609375 142.828125 C-9.29358765 144.35578491 -9.29358765 144.35578491 -9.34204102 145.91430664 C-9.37354248 147.01508545 -9.40504395 148.11586426 -9.4375 149.25 C-9.82730403 160.90791888 -10.78317139 172.39956727 -12 184 C-5.4 184 1.2 184 8 184 C8.28875 182.205625 8.5775 180.41125 8.875 178.5625 C9.3671875 175.50390625 9.3671875 175.50390625 10 173 C10.66 172.67 11.32 172.34 12 172 C11.88437394 173.39664108 11.757008 174.79231199 11.625 176.1875 C11.52058594 177.35345703 11.52058594 177.35345703 11.4140625 178.54296875 C11 181 11 181 9 186 C1.41 186 -6.18 186 -14 186 C-15 184 -15 184 -14 172 C-33.8 172 -53.6 172 -74 172 C-74 171.67 -74 171.34 -74 171 C-53.87 171 -33.74 171 -13 171 C-12.7525 166.00875 -12.505 161.0175 -12.25 155.875 C-11.07128428 133.53018987 -9.01374909 111.28548995 -7 89 C-26.14 89 -45.28 89 -65 89 C-65 88.67 -65 88.34 -65 88 C-45.53 88 -26.06 88 -6 88 C-6 84.04 -6 80.08 -6 76 C-5.01 66.1 -5.01 66.1 -4 56 C-22.48 56 -40.96 56 -60 56 C-60 55.67 -60 55.34 -60 55 C-41.52 55 -23.04 55 -4 55 C-3.67 49.06 -3.34 43.12 -3 37 C-2.76498863 33.71279132 -2.5231616 30.43157724 -2.24609375 27.1484375 C-2.18092056 26.35265289 -2.11574738 25.55686829 -2.04859924 24.73696899 C-1.84711241 22.28279059 -1.64239737 19.82889573 -1.4375 17.375 C-1.29730761 15.67449716 -1.15733281 13.97397637 -1.01757812 12.2734375 C-0.68087736 8.18208168 -0.3412892 4.09097552 0 0 Z " fill="#CD9E6E" transform="translate(133,61)"/>
<path d="M0 0 C4.46445669 2.73998844 7.91091374 7.26958151 9.8203125 12.1171875 C10.54961756 19.36288058 10.39948061 25.7045113 6.8203125 32.1171875 C6.2578125 30.1796875 6.2578125 30.1796875 5.8203125 28.1171875 C6.3153125 27.6221875 6.3153125 27.6221875 6.8203125 27.1171875 C6.89344817 24.58669348 6.91278777 22.08413913 6.8828125 19.5546875 C6.87830078 18.84376953 6.87378906 18.13285156 6.86914062 17.40039062 C6.85732114 15.63928737 6.83938513 13.87822714 6.8203125 12.1171875 C5.8303125 11.7871875 4.8403125 11.4571875 3.8203125 11.1171875 C2.23065679 8.90017603 1.09703764 6.53856277 -0.1796875 4.1171875 C-4.82555642 4.60203026 -4.82555642 4.60203026 -9.1796875 6.1171875 C-10.89202438 6.0301671 -12.60144156 5.87621588 -14.3046875 5.6796875 C-15.21476562 5.57785156 -16.12484375 5.47601563 -17.0625 5.37109375 C-18.11050781 5.24541016 -18.11050781 5.24541016 -19.1796875 5.1171875 C-19.1796875 8.0871875 -19.1796875 11.0571875 -19.1796875 14.1171875 C-20.1696875 14.1171875 -21.1596875 14.1171875 -22.1796875 14.1171875 C-22.5096875 13.7871875 -22.8396875 13.4571875 -23.1796875 13.1171875 C-23.1178125 14.0453125 -23.0559375 14.9734375 -22.9921875 15.9296875 C-23.1796875 19.1171875 -23.1796875 19.1171875 -24.3046875 21.0546875 C-27.10638777 22.64231765 -29.14954394 21.85788926 -32.1796875 21.1171875 C-32.5096875 22.1071875 -32.8396875 23.0971875 -33.1796875 24.1171875 C-34.1696875 24.4471875 -35.1596875 24.7771875 -36.1796875 25.1171875 C-35.83741178 28.08784259 -35.83741178 28.08784259 -35.1796875 31.1171875 C-34.5196875 31.4471875 -33.8596875 31.7771875 -33.1796875 32.1171875 C-32.58613136 34.76579177 -32.43759481 37.40916072 -32.1796875 40.1171875 C-36.01346945 36.66678374 -37.88480491 33.67921939 -38.48046875 28.50390625 C-38.5244139 18.38187441 -36.33320092 12.54760776 -29.375 5.1015625 C-21.33518039 -2.16574775 -10.01641568 -4.25799047 0 0 Z " fill="#F8940F" transform="translate(242.1796875,282.8828125)"/>
<path d="M0 0 C0.33 0 0.66 0 1 0 C1.02688151 1.64574566 1.04634123 3.29161413 1.0625 4.9375 C1.07410156 5.85402344 1.08570313 6.77054688 1.09765625 7.71484375 C1 10 1 10 0 11 C-0.51371191 15.10969525 0.20161136 17.61331044 2.0625 21.1875 C4.58759573 26.42506606 4.4182723 31.40681345 3 37 C2.01 37.495 2.01 37.495 1 38 C1 34.04 1 30.08 1 26 C0.01 26 -0.98 26 -2 26 C-2.02684679 28.64590014 -2.04676357 31.29153096 -2.0625 33.9375 C-2.07087891 34.69224609 -2.07925781 35.44699219 -2.08789062 36.22460938 C-2.09652441 38.14994313 -2.05224333 40.07535581 -2 42 C-1.67 42.33 -1.34 42.66 -1 43 C-0.85507871 44.51289612 -0.7729382 46.03192626 -0.71875 47.55078125 C-0.68136719 48.47697266 -0.64398438 49.40316406 -0.60546875 50.35742188 C-0.57066406 51.33259766 -0.53585938 52.30777344 -0.5 53.3125 C-0.4309052 55.22540229 -0.35812534 57.13817585 -0.28125 59.05078125 C-0.25095703 59.90325439 -0.22066406 60.75572754 -0.18945312 61.6340332 C-0.01080945 63.86500727 0.38711205 65.85210067 1 68 C-1.64 68 -4.28 68 -7 68 C-7 68.66 -7 69.32 -7 70 C-7.66 70 -8.32 70 -9 70 C-10.11165232 65.5621439 -10.11527763 61.23043614 -10.0625 56.6875 C-10.05798828 55.94693359 -10.05347656 55.20636719 -10.04882812 54.44335938 C-10.03712175 52.62887101 -10.01918898 50.81442466 -10 49 C-9.34 49 -8.68 49 -8 49 C-8.01047363 48.42032471 -8.02094727 47.84064941 -8.03173828 47.2434082 C-8.07348615 44.59981679 -8.09938538 41.95629495 -8.125 39.3125 C-8.14175781 38.40048828 -8.15851563 37.48847656 -8.17578125 36.54882812 C-8.24055271 27.64275291 -8.24055271 27.64275291 -6 24 C-5.01 23.67 -4.02 23.34 -3 23 C-2.95745644 21.00045254 -2.95919217 18.99958364 -3 17 C-3.33 16.67 -3.66 16.34 -4 16 C-4.07205511 14.31391034 -4.08386068 12.62499341 -4.0625 10.9375 C-4.05347656 10.01839844 -4.04445312 9.09929687 -4.03515625 8.15234375 C-4.02355469 7.44207031 -4.01195312 6.73179687 -4 6 C-3.34 6 -2.68 6 -2 6 C-1.34 4.02 -0.68 2.04 0 0 Z " fill="#F08207" transform="translate(237,175)"/>
<path d="M0 0 C0.33 0 0.66 0 1 0 C0.67 11.55 0.34 23.1 0 35 C-0.66 35 -1.32 35 -2 35 C-1.99476318 35.74161377 -1.98952637 36.48322754 -1.98413086 37.24731445 C-1.96336386 40.60236771 -1.9503407 43.95740744 -1.9375 47.3125 C-1.92912109 48.47974609 -1.92074219 49.64699219 -1.91210938 50.84960938 C-1.90888672 51.96787109 -1.90566406 53.08613281 -1.90234375 54.23828125 C-1.89710693 55.26993408 -1.89187012 56.30158691 -1.88647461 57.36450195 C-2 60 -2 60 -3 63 C-3.1464714 64.55266653 -3.24694074 66.10995662 -3.31640625 67.66796875 C-3.35830078 68.56064453 -3.40019531 69.45332031 -3.44335938 70.37304688 C-3.48267578 71.30181641 -3.52199219 72.23058594 -3.5625 73.1875 C-3.62727539 74.59805664 -3.62727539 74.59805664 -3.69335938 76.03710938 C-3.79938665 78.35792854 -3.90145029 80.67885325 -4 83 C-4.66 83 -5.32 83 -6 83 C-5.505 93.395 -5.505 93.395 -5 104 C1.27 104 7.54 104 14 104 C14.63747422 100.81262888 15.13918023 97.94019511 15.4375 94.75 C15.7159375 92.89375 15.7159375 92.89375 16 91 C18.46041687 89.76979157 19.97752653 89.914866 22.72509766 89.97827148 C23.70596344 89.99836777 24.68682922 90.01846405 25.69741821 90.03916931 C26.75891083 90.06620438 27.82040344 90.09323944 28.9140625 90.12109375 C30.54122696 90.15651024 30.54122696 90.15651024 32.20126343 90.19264221 C35.67597162 90.2693943 39.15046338 90.35336904 42.625 90.4375 C44.97655181 90.49070912 47.32811427 90.54344958 49.6796875 90.59570312 C55.45325977 90.72502503 61.22667048 90.8602819 67 91 C67 91.33 67 91.66 67 92 C50.83 92 34.66 92 18 92 C17.34 96.29 16.68 100.58 16 105 C15 106 15 106 12.77514648 106.11352539 C11.33764038 106.10567017 11.33764038 106.10567017 9.87109375 106.09765625 C8.31938477 106.09282227 8.31938477 106.09282227 6.73632812 106.08789062 C5.64771484 106.07951172 4.55910156 106.07113281 3.4375 106.0625 C1.7987793 106.05573242 1.7987793 106.05573242 0.12695312 106.04882812 C-2.58208495 106.03699826 -5.29101599 106.02051543 -8 106 C-9 102 -9 102 -8 92 C-34.4 92 -60.8 92 -88 92 C-88 91.67 -88 91.34 -88 91 C-61.27 91 -34.54 91 -7 91 C-7 87.37 -7 83.74 -7 80 C-6.88949126 77.74414161 -6.751391 75.48928093 -6.57275391 73.23779297 C-6.47910553 72.03218719 -6.38545715 70.82658142 -6.28897095 69.58444214 C-6.18587616 68.31649811 -6.08278137 67.04855408 -5.9765625 65.7421875 C-5.86896685 64.3861819 -5.76166316 63.0301531 -5.65463257 61.67410278 C-5.43038355 58.84500727 -5.20315225 56.01617269 -4.97363281 53.1875 C-4.68387927 49.61447983 -4.40083417 46.0409673 -4.11981583 42.46725082 C-3.00217219 28.28179357 -1.8747738 14.1098605 0 0 Z " fill="#E2AB7B" transform="translate(233,141)"/>
<path d="M0 0 C0.639375 0.165 1.27875 0.33 1.9375 0.5 C4.04582216 1.24598544 4.04582216 1.24598544 6 0 C8.37492749 7.12478247 6.75173414 12.48775242 3.97265625 19.19140625 C2.14676964 24.46374549 1.91105724 29.83201173 1.70874023 35.35791016 C1.39252524 43.91876264 0.32498671 51.7236322 -2 60 C-2.33 60 -2.66 60 -3 60 C-3.336611 58.22978678 -3.66917293 56.45880326 -4 54.6875 C-4.185625 53.70136719 -4.37125 52.71523437 -4.5625 51.69921875 C-5 49 -5 49 -5 46 C-5.66 45.34 -6.32 44.68 -7 44 C-6.44444444 39.44444444 -6.44444444 39.44444444 -5 38 C-4.91314397 36.43827255 -4.89297781 34.87270656 -4.90234375 33.30859375 C-4.90556641 32.36435547 -4.90878906 31.42011719 -4.91210938 30.44726562 C-4.92048828 29.45404297 -4.92886719 28.46082031 -4.9375 27.4375 C-4.94201172 26.44041016 -4.94652344 25.44332031 -4.95117188 24.41601562 C-4.96299993 21.94395151 -4.97948151 19.47200482 -5 17 C-5.66 17 -6.32 17 -7 17 C-6.505 15.515 -6.505 15.515 -6 14 C-5.34 14 -4.68 14 -4 14 C-4 14.99 -4 15.98 -4 17 C-3.34 17 -2.68 17 -2 17 C-2.33 16.113125 -2.66 15.22625 -3 14.3125 C-3.91222143 11.29076653 -4.18330958 9.11626294 -4 6 C-3.01 6 -2.02 6 -1 6 C-1.020625 5.195625 -1.04125 4.39125 -1.0625 3.5625 C-1 1 -1 1 0 0 Z " fill="#F07E01" transform="translate(150,159)"/>
<path d="M0 0 C1.32 0.33 2.64 0.66 4 1 C4.6645735 19.90342394 4.6645735 19.90342394 -0.921875 26.1484375 C-7.02355684 31.97659567 -12.4924958 35.00743034 -20.9375 35.4375 C-26.13477778 35.28463889 -30.59185034 33.75132803 -35 31 C-35.33 30.34 -35.66 29.68 -36 29 C-33.69 29.33 -31.38 29.66 -29 30 C-28.34 29.01 -27.68 28.02 -27 27 C-26.34 27.33 -25.68 27.66 -25 28 C-25 27.01 -25 26.02 -25 25 C-24.0925 25.165 -23.185 25.33 -22.25 25.5 C-15.88929604 26.47856984 -10.21764013 25.25194446 -4 24 C-4 23.24074219 -4 22.48148437 -4 21.69921875 C-4 17.79947917 -4 13.89973958 -4 10 C-4.20625 9.319375 -4.4125 8.63875 -4.625 7.9375 C-4.74875 7.298125 -4.8725 6.65875 -5 6 C-4.34 5.34 -3.68 4.68 -3 4 C-2.505 6.97 -2.505 6.97 -2 10 C-1.34 10 -0.68 10 0 10 C0 6.7 0 3.4 0 0 Z " fill="#EE8010" transform="translate(246,294)"/>
<path d="M0 0 C0.66 0 1.32 0 2 0 C2.33 0.99 2.66 1.98 3 3 C3.66 3.33 4.32 3.66 5 4 C4.67 7.96 4.34 11.92 4 16 C19.51 16 35.02 16 51 16 C51 16.33 51 16.66 51 17 C35.49 17.33 19.98 17.66 4 18 C1.16994799 32.26839582 1.16994799 32.26839582 -1.65356445 46.53808594 C-3.54975722 56.08544243 -5.44499555 65.60245754 -8 75 C-8.33 75 -8.66 75 -9 75 C-9 71.04 -9 67.08 -9 63 C-8.34 63 -7.68 63 -7 63 C-7.33 60.03 -7.66 57.06 -8 54 C-7.34 54 -6.68 54 -6 54 C-6.495 53.278125 -6.99 52.55625 -7.5 51.8125 C-9.09315671 48.82533117 -9.44864851 47.31999901 -9 44 C-8.34 43.34 -7.68 42.68 -7 42 C-6.38161448 39.41909933 -5.98346569 36.83460345 -5.5625 34.21484375 C-5.376875 33.48394531 -5.19125 32.75304687 -5 32 C-4.34 31.67 -3.68 31.34 -3 31 C-2.41162421 28.62946264 -2.41162421 28.62946264 -2.0625 25.75 C-1.05943658 19.07360987 0.41314661 12.55899401 2 6 C1.34 6 0.68 6 0 6 C0 4.02 0 2.04 0 0 Z " fill="#EA7E14" transform="translate(264,133)"/>
<path d="M0 0 C1.98684692 -0.32279968 1.98684692 -0.32279968 4.44970703 -0.2487793 C5.37051056 -0.22853195 6.29131409 -0.20828461 7.24002075 -0.18742371 C8.23589203 -0.15006607 9.23176331 -0.11270844 10.2578125 -0.07421875 C11.78509476 -0.03455742 11.78509476 -0.03455742 13.3432312 0.00590515 C16.60440351 0.09387557 19.86448794 0.20295331 23.125 0.3125 C25.33199191 0.37573713 27.53902355 0.43760388 29.74609375 0.49804688 C35.16462414 0.64944936 40.58240901 0.81819876 46 1 C45.44337591 7.67959954 44.50593772 14.16427857 43.15234375 20.7265625 C42.97619034 21.60025482 42.80003693 22.47394714 42.61854553 23.37411499 C42.06276315 26.12535876 41.50026029 28.87517603 40.9375 31.625 C40.55619247 33.50641964 40.17532914 35.38792937 39.79492188 37.26953125 C38.86840534 41.84741004 37.93586508 46.4240236 37 51 C36.67 51 36.34 51 36 51 C36.08125156 47.12416586 36.19406419 43.2498621 36.3125 39.375 C36.33505859 38.28058594 36.35761719 37.18617187 36.38085938 36.05859375 C36.57490108 30.23734256 36.94004135 26.09993108 40 21 C40.55048012 18.7279419 40.55048012 18.7279419 40.6875 16.625 C40.790625 15.42875 40.89375 14.2325 41 13 C41.66 13 42.32 13 43 13 C42.67 9.7 42.34 6.4 42 3 C41.15598633 3.16443604 40.31197266 3.32887207 39.44238281 3.49829102 C35.86736105 4.01933142 32.5326535 4.08083854 28.921875 4.02734375 C27.58333577 4.01471349 26.24479398 4.00235139 24.90625 3.99023438 C22.8169745 3.96530328 20.72783459 3.93714886 18.63867188 3.90405273 C16.60806387 3.87395385 14.57763397 3.85612424 12.546875 3.83984375 C11.33870117 3.82300537 10.13052734 3.80616699 8.88574219 3.78881836 C5.87085015 3.69340844 5.87085015 3.69340844 4 6 C4.061875 7.2065625 4.061875 7.2065625 4.125 8.4375 C4.08375 9.283125 4.0425 10.12875 4 11 C2.68212715 12.02028865 1.34789347 13.01971384 0 14 C-1.4456778 18.99415967 -1.33110092 24.30196691 -1.51757812 29.46875 C-1.60829277 31.31727479 -1.79631037 33.16049366 -2 35 C-2.99 35.495 -2.99 35.495 -4 36 C-3.1288092 16.06625803 -3.1288092 16.06625803 -2.5625 7.875 C-2.50191406 6.98554687 -2.44132813 6.09609375 -2.37890625 5.1796875 C-2 3 -2 3 0 0 Z " fill="#F4AB57" transform="translate(242,45)"/>
<path d="M0 0 C0.33 0 0.66 0 1 0 C1.33 3.63 1.66 7.26 2 11 C1.01 10.67 0.02 10.34 -1 10 C-1 9.01 -1 8.02 -1 7 C-1.66 7 -2.32 7 -3 7 C-3 8.98 -3 10.96 -3 13 C-2.34 13 -1.68 13 -1 13 C-1.64288077 22.05108449 -2.92555245 30.43546753 -6 39 C-6.66 39 -7.32 39 -8 39 C-8.12375 39.78375 -8.2475 40.5675 -8.375 41.375 C-9 44 -9 44 -11 46 C-12 45 -12 45 -12.125 42.125 C-12 39 -12 39 -11 36 C-10.96045766 33.66700175 -10.95598268 31.33291811 -11 29 C-10.67 29 -10.34 29 -10 29 C-9.77692458 26.7722603 -9.57211822 24.54268636 -9.375 22.3125 C-9.25898438 21.07113281 -9.14296875 19.82976562 -9.0234375 18.55078125 C-9.00001135 15.00171901 -9.65924384 13.20051472 -11 10 C-10.6930219 7.1629282 -9.83917278 4.7506219 -9 2 C-6.03 2 -3.06 2 0 2 C0 1.34 0 0.68 0 0 Z " fill="#F18106" transform="translate(267,126)"/>
<path d="M0 0 C0.66 0 1.32 0 2 0 C2.22237334 5.46608005 1.46535546 10.10337016 0.0625 15.375 C-0.11990234 16.09816406 -0.30230469 16.82132813 -0.49023438 17.56640625 C-1.85439712 22.85439712 -1.85439712 22.85439712 -3 24 C-3.23024542 25.97353214 -3.45948954 27.94719656 -3.6796875 29.921875 C-4.07311964 32.47438595 -4.90663586 34.66748985 -6 37 C-8.31 36.67 -10.62 36.34 -13 36 C-13 34.02 -13 32.04 -13 30 C-12.34 30 -11.68 30 -11 30 C-10.67 31.32 -10.34 32.64 -10 34 C-9.34 34 -8.68 34 -8 34 C-6.57741188 30.17679443 -5.75957724 27.08718695 -6 23 C-9.62885324 22.84850702 -9.62885324 22.84850702 -13 24 C-13.25 17.375 -13.25 17.375 -11 14 C-10.34 14 -9.68 14 -9 14 C-8.34 11.03 -7.68 8.06 -7 5 C-5.34385343 4.61781233 -3.67542976 4.28604898 -2 4 C-1.67 4.33 -1.34 4.66 -1 5 C-0.67 3.35 -0.34 1.7 0 0 Z " fill="#E77A14" transform="translate(253,208)"/>
<path d="M0 0 C15.51 0 31.02 0 47 0 C46.67 3.3 46.34 6.6 46 10 C45.67 10 45.34 10 45 10 C45 7.03 45 4.06 45 1 C23.715 1.99 23.715 1.99 2 3 C2 6.63 2 10.26 2 14 C1.67 14.33 1.34 14.66 1 15 C0.54037067 21.77686043 1.07244515 27.49450239 3 34 C3.47704391 39.71535295 3.25413487 44.64642968 1 50 C0.34 50 -0.32 50 -1 50 C-1.8579384 44.18632755 -2.08882323 38.66056202 -1.9140625 32.79296875 C-1.89282318 31.9457576 -1.87158386 31.09854645 -1.84970093 30.22566223 C-1.8037561 28.44992425 -1.75485815 26.67426041 -1.703125 24.89868164 C-1.62472762 22.17804742 -1.55780613 19.45729745 -1.4921875 16.73632812 C-1.44599074 15.0051901 -1.39913903 13.2740694 -1.3515625 11.54296875 C-1.33171295 10.73047165 -1.3118634 9.91797455 -1.29141235 9.08085632 C-1.19149523 5.82647196 -1.03576157 3.10728472 0 0 Z " fill="#F6A44A" transform="translate(135,46)"/>
<path d="M0 0 C4.91377549 2.8395178 8.54957655 7.06705862 10.625 12.375 C10.890625 15.7578125 10.890625 15.7578125 10.875 19.5 C10.88273437 21.36011719 10.88273437 21.36011719 10.890625 23.2578125 C10.625 26.375 10.625 26.375 8.625 28.375 C8.955 24.745 9.285 21.115 9.625 17.375 C8.635 17.375 7.645 17.375 6.625 17.375 C6.625 15.065 6.625 12.755 6.625 10.375 C5.965 10.045 5.305 9.715 4.625 9.375 C4.625 8.055 4.625 6.735 4.625 5.375 C2.975 5.375 1.325 5.375 -0.375 5.375 C-0.87 3.89 -0.87 3.89 -1.375 2.375 C-4.42440673 1.35853109 -6.67869903 1.17655324 -9.875 1.125 C-11.31359375 1.08632813 -11.31359375 1.08632813 -12.78125 1.046875 C-15.79094495 1.42761954 -16.50044428 2.0806818 -18.375 4.375 C-21.46271148 6.33055061 -23.74814539 6.57649192 -27.375 6.375 C-27.375 7.365 -27.375 8.355 -27.375 9.375 C-28.035 9.375 -28.695 9.375 -29.375 9.375 C-29.684375 9.99375 -29.99375 10.6125 -30.3125 11.25 C-31 12.625 -31.6875 14 -32.375 15.375 C-33.035 15.375 -33.695 15.375 -34.375 15.375 C-34.375 22.305 -34.375 29.235 -34.375 36.375 C-37.84858644 31.16462034 -37.99503068 26.46901587 -37.375 20.375 C-35.36329249 13.00681829 -30.73601616 6.14873454 -24.25 2.0234375 C-16.62099988 -1.87520594 -8.11770297 -3.72641222 0 0 Z " fill="#F0B877" transform="translate(135.375,282.625)"/>
<path d="M0 0 C1.32 0.99 2.64 1.98 4 3 C2.66666667 6.33333333 1.33333333 9.66666667 0 13 C-0.66 13 -1.32 13 -2 13 C-2 13.66 -2 14.32 -2 15 C-2.66 15 -3.32 15 -4 15 C-4 16.32 -4 17.64 -4 19 C-3.34 19 -2.68 19 -2 19 C-1.67 18.01 -1.34 17.02 -1 16 C-0.67 16 -0.34 16 0 16 C0.28571429 23.42857143 0.28571429 23.42857143 -2 27 C-2.99 27 -3.98 27 -5 27 C-5 28.32 -5 29.64 -5 31 C-4.01 31.33 -3.02 31.66 -2 32 C-2 32.66 -2 33.32 -2 34 C-1.34 34 -0.68 34 0 34 C0.33 34.99 0.66 35.98 1 37 C-2.90034228 35.73502412 -4.98561978 34.62588439 -7 31 C-8.87176894 24.02340667 -8.59623781 16.0057104 -7 9 C-6.34 9 -5.68 9 -5 9 C-4.690625 8.38125 -4.38125 7.7625 -4.0625 7.125 C-3.375 5.75 -2.6875 4.375 -2 3 C-1.34 3 -0.68 3 0 3 C0 2.01 0 1.02 0 0 Z " fill="#F89319" transform="translate(108,289)"/>
<path d="M0 0 C2.16874252 0.50603992 3.99967627 0.99983813 6 2 C7.48145651 9.06540796 7.48145651 9.06540796 5.9375 12.0625 C3.08347337 13.44348063 1.0021294 12.73385385 -2 12 C-2.33 12.99 -2.66 13.98 -3 15 C-3.99 15.33 -4.98 15.66 -6 16 C-5.65772428 18.97065509 -5.65772428 18.97065509 -5 22 C-4.34 22.33 -3.68 22.66 -3 23 C-2.40644386 25.64860427 -2.25790731 28.29197322 -2 31 C-5.83378195 27.54959624 -7.70511741 24.56203189 -8.30078125 19.38671875 C-8.32767646 13.19185495 -7.55968771 8.65264369 -5 3 C-3.35 3 -1.7 3 0 3 C0 2.01 0 1.02 0 0 Z " fill="#FA9302" transform="translate(212,292)"/>
<path d="M0 0 C2.31 0 4.62 0 7 0 C6.4740625 0.8353125 6.4740625 0.8353125 5.9375 1.6875 C4.78154007 4.53886783 5.19032562 6.08517222 6 9 C4.68 9.33 3.36 9.66 2 10 C2 10.99 2 11.98 2 13 C1.01 13.495 1.01 13.495 0 14 C-0.33 14.99 -0.66 15.98 -1 17 C-2.06541016 17.19916016 -2.06541016 17.19916016 -3.15234375 17.40234375 C-4.07144531 17.57894531 -4.99054688 17.75554687 -5.9375 17.9375 C-6.85402344 18.11152344 -7.77054688 18.28554688 -8.71484375 18.46484375 C-10.95289844 18.77714988 -10.95289844 18.77714988 -12 20 C-13.64230364 20.1245486 -15.29052276 20.17568524 -16.9375 20.1875 C-17.83339844 20.20167969 -18.72929688 20.21585937 -19.65234375 20.23046875 C-22 20 -22 20 -24 18 C-23.34 16.02 -22.68 14.04 -22 12 C-20.9171875 12.99 -20.9171875 12.99 -19.8125 14 C-16.74188423 16.18354899 -15.64996808 16.48025896 -12 16 C-11.01 15.67 -10.02 15.34 -9 15 C-7.68 15 -6.36 15 -5 15 C-4.87625 14.443125 -4.7525 13.88625 -4.625 13.3125 C-3.94023145 10.77885636 -3.00866237 8.42078968 -2 6 C-1.34 6 -0.68 6 0 6 C0 4.02 0 2.04 0 0 Z " fill="#ED7B09" transform="translate(135,307)"/>
<path d="M0 0 C0.33 0 0.66 0 1 0 C1.17079577 14.68843615 0.641084 29.32667837 0 44 C-0.66 44 -1.32 44 -2 44 C-2 48.29 -2 52.58 -2 57 C-2.33 57 -2.66 57 -3 57 C-3.02720824 54.31243045 -3.0469388 51.62514202 -3.0625 48.9375 C-3.07087891 48.18533203 -3.07925781 47.43316406 -3.08789062 46.65820312 C-3.09111328 45.91376953 -3.09433594 45.16933594 -3.09765625 44.40234375 C-3.10289307 43.72679443 -3.10812988 43.05124512 -3.11352539 42.35522461 C-2.96232791 39.218446 -2.44412252 36.10885765 -2 33 C-24.11 33 -46.22 33 -69 33 C-68.67 31.68 -68.34 30.36 -68 29 C-68 29.99 -68 30.98 -68 32 C-66.25783203 31.87431641 -66.25783203 31.87431641 -64.48046875 31.74609375 C-43.66032092 30.46419124 -22.83100903 31.37391979 -2 32 C-1.90150757 30.07643677 -1.90150757 30.07643677 -1.80102539 28.11401367 C-1.71244508 26.40282982 -1.62381963 24.6916483 -1.53515625 22.98046875 C-1.49217407 22.13867065 -1.44919189 21.29687256 -1.40490723 20.42956543 C-1.0501037 13.60908653 -0.57427784 6.80580339 0 0 Z " fill="#D7B48C" transform="translate(237,84)"/>
<path d="M0 0 C0.66 0.33 1.32 0.66 2 1 C1.835 1.99 1.67 2.98 1.5 4 C0.82516493 9.0795018 0.99787699 14.16762226 1.21289062 19.27539062 C1.31519048 23.86998863 0.45426998 26.20306324 -2 30 C-2.56707759 32.88528514 -2.56707759 32.88528514 -2.6875 35.8125 C-2.75324219 36.78832031 -2.81898438 37.76414063 -2.88671875 38.76953125 C-2.92410156 39.50558594 -2.96148437 40.24164063 -3 41 C-3.66 41 -4.32 41 -5 41 C-5.10177794 34.41835988 -4.96856709 28.00508419 -4.2265625 21.46484375 C-3.84636964 17.32860768 -3.71518766 13.14653258 -4 9 C-4.33 8.67 -4.66 8.34 -5 8 C-4.71269945 5.66055264 -4.38063221 3.3260857 -4 1 C-3.67 1.99 -3.34 2.98 -3 4 C-2.34 4 -1.68 4 -1 4 C-0.67 2.68 -0.34 1.36 0 0 Z " fill="#F99405" transform="translate(141,71)"/>
<path d="M0 0 C20.13 0 40.26 0 61 0 C61.495 6.435 61.495 6.435 62 13 C68.6 13 75.2 13 82 13 C82.28875 11.205625 82.5775 9.41125 82.875 7.5625 C83.3671875 4.50390625 83.3671875 4.50390625 84 2 C84.66 1.67 85.32 1.34 86 1 C85.88437394 2.39664108 85.757008 3.79231199 85.625 5.1875 C85.55539063 5.96480469 85.48578125 6.74210938 85.4140625 7.54296875 C85 10 85 10 83 15 C75.41 15 67.82 15 60 15 C59 13 59 13 60 1 C40.2 1 20.4 1 0 1 C0 0.67 0 0.34 0 0 Z " fill="#F2CEAF" transform="translate(59,232)"/>
<path d="M0 0 C0.66 0 1.32 0 2 0 C2.33 0.99 2.66 1.98 3 3 C3.66 3.33 4.32 3.66 5 4 C4.67 7.96 4.34 11.92 4 16 C19.51 16 35.02 16 51 16 C51 16.33 51 16.66 51 17 C35.49 17.33 19.98 17.66 4 18 C2.35 26.25 0.7 34.5 -1 43 C-1.33 43 -1.66 43 -2 43 C-1.67 37.72 -1.34 32.44 -1 27 C-0.34 27 0.32 27 1 27 C0.85691406 26.10861328 0.85691406 26.10861328 0.7109375 25.19921875 C-0.19502827 18.42554447 0.47286755 12.63860884 2 6 C1.34 6 0.68 6 0 6 C0 4.02 0 2.04 0 0 Z " fill="#AB7C4F" transform="translate(264,133)"/>
<path d="M0 0 C-6.03042468 5.82312884 -11.44623801 9.03002458 -19.9375 9.4375 C-25.13477778 9.28463889 -29.59185034 7.75132803 -34 5 C-34.33 4.34 -34.66 3.68 -35 3 C-32.69 3.33 -30.38 3.66 -28 4 C-27.34 3.01 -26.68 2.02 -26 1 C-22.535 2.485 -22.535 2.485 -19 4 C-19 4.66 -19 5.32 -19 6 C-17.68 6 -16.36 6 -15 6 C-15 5.34 -15 4.68 -15 4 C-14.34 4 -13.68 4 -13 4 C-13 3.34 -13 2.68 -13 2 C-10.69 2.33 -8.38 2.66 -6 3 C-6 2.01 -6 1.02 -6 0 C-3 -1 -3 -1 0 0 Z " fill="#E89851" transform="translate(245,320)"/>
<path d="M0 0 C26.73 0 53.46 0 81 0 C81.495 6.435 81.495 6.435 82 13 C88.93 13.33 95.86 13.66 103 14 C103 14.33 103 14.66 103 15 C95.41 15 87.82 15 80 15 C79 11 79 11 80 1 C53.6 1 27.2 1 0 1 C0 0.67 0 0.34 0 0 Z " fill="#FFFEFE" transform="translate(145,232)"/>
<path d="M0 0 C4.46445669 2.73998844 7.91091374 7.26958151 9.8203125 12.1171875 C10.54961756 19.36288058 10.39948061 25.7045113 6.8203125 32.1171875 C6.2578125 30.1796875 6.2578125 30.1796875 5.8203125 28.1171875 C6.1503125 27.7871875 6.4803125 27.4571875 6.8203125 27.1171875 C6.89344817 24.58669348 6.91278777 22.08413913 6.8828125 19.5546875 C6.87830078 18.84376953 6.87378906 18.13285156 6.86914062 17.40039062 C6.85732114 15.63928737 6.83938513 13.87822714 6.8203125 12.1171875 C5.8303125 11.7871875 4.8403125 11.4571875 3.8203125 11.1171875 C3.2634375 10.0240625 2.7065625 8.9309375 2.1328125 7.8046875 C-0.25776177 3.37026347 -3.44961211 1.60809306 -8.1796875 0.1171875 C-13.59296488 -0.53613908 -16.42568046 0.68736168 -21.1796875 3.1171875 C-23.35546875 2.70703125 -23.35546875 2.70703125 -25.1796875 2.1171875 C-16.90728977 -2.3586992 -8.88765872 -3.77815452 0 0 Z " fill="#E89B56" transform="translate(242.1796875,282.8828125)"/>
<path d="M0 0 C0.33 0 0.66 0 1 0 C0.67 11.55 0.34 23.1 0 35 C-0.66 35 -1.32 35 -2 35 C-1.98952637 35.74161377 -1.97905273 36.48322754 -1.96826172 37.24731445 C-1.92672804 40.60234193 -1.90068211 43.95731533 -1.875 47.3125 C-1.85824219 48.47974609 -1.84148437 49.64699219 -1.82421875 50.84960938 C-1.81777344 51.96787109 -1.81132812 53.08613281 -1.8046875 54.23828125 C-1.79421387 55.26993408 -1.78374023 56.30158691 -1.77294922 57.36450195 C-2 60 -2 60 -4 63 C-4.33 62.67 -4.66 62.34 -5 62 C-4.98739717 59.15176072 -4.89623462 56.34283275 -4.75 53.5 C-4.68329102 52.14612183 -4.68329102 52.14612183 -4.61523438 50.76489258 C-4.12062244 41.72109209 -3.32507623 32.7059376 -2.5 23.6875 C-2.43437866 22.96949219 -2.36875732 22.25148437 -2.30114746 21.51171875 C-1.63994033 14.32750422 -0.96212629 7.15118868 0 0 Z " fill="#EAA15B" transform="translate(233,141)"/>
<path d="M0 0 C0.99 0 1.98 0 3 0 C2.36735592 6.53732214 1.30815174 12.45924129 0 19 C14.19 19 28.38 19 43 19 C43 19.33 43 19.66 43 20 C28.48 20.33 13.96 20.66 -1 21 C-1.66 24.3 -2.32 27.6 -3 31 C-3.33 31 -3.66 31 -4 31 C-4.0270043 29.54176788 -4.04639787 28.08339325 -4.0625 26.625 C-4.07410156 25.81289062 -4.08570313 25.00078125 -4.09765625 24.1640625 C-4 22 -4 22 -3 20 C-2.7724985 18.12943209 -2.59037189 16.25314042 -2.4375 14.375 C-2.35371094 13.37210938 -2.26992188 12.36921875 -2.18359375 11.3359375 C-2.12300781 10.56507812 -2.06242187 9.79421875 -2 9 C-1.34 9 -0.68 9 0 9 C0 6.03 0 3.06 0 0 Z " fill="#D0A884" transform="translate(275,97)"/>
<path d="M0 0 C0.33 0 0.66 0 1 0 C1 2.64 1 5.28 1 8 C1.66 8 2.32 8 3 8 C3 6.35 3 4.7 3 3 C3.33 3 3.66 3 4 3 C3.67 9.93 3.34 16.86 3 24 C3.66 24 4.32 24 5 24 C4.67 25.32 4.34 26.64 4 28 C3.01 28 2.02 28 1 28 C-1.73726551 21.83409779 -2.33310017 17.30314719 -1.75 10.625 C-1.69714844 9.81933594 -1.64429688 9.01367188 -1.58984375 8.18359375 C-1.1687714 2.33754281 -1.1687714 2.33754281 0 0 Z " fill="#FB9218" transform="translate(133,88)"/>
<path d="M0 0 C0.66 0 1.32 0 2 0 C0.35226374 9.00355641 -1.31666499 18.00303346 -3 27 C-3.19706543 28.05912598 -3.39413086 29.11825195 -3.59716797 30.20947266 C-4.1186128 32.99555651 -4.65086794 35.77930729 -5.1875 38.5625 C-5.41904785 39.80918457 -5.41904785 39.80918457 -5.65527344 41.08105469 C-6.76981617 46.76981617 -6.76981617 46.76981617 -9 49 C-9.29019247 40.37483504 -8.47770676 33.05404934 -5.5625 24.9375 C-3.59116508 19.2936782 -2.68197535 13.44519877 -1.6484375 7.57421875 C-1.18258579 5.00642168 -0.68510408 2.51420271 0 0 Z " fill="#E69755" transform="translate(160,150)"/>
<path d="M0 0 C0.33 0 0.66 0 1 0 C1.17015829 4.27070155 1.33547723 8.54157793 1.5 12.8125 C1.54769531 14.00810547 1.59539062 15.20371094 1.64453125 16.43554688 C2.41539674 36.64323495 2.41539674 36.64323495 1 42 C1.04125 42.763125 1.0825 43.52625 1.125 44.3125 C0.95148525 48.04306705 -0.41356212 50.6288195 -2 54 C-2.33 54 -2.66 54 -3 54 C-3 51.69 -3 49.38 -3 47 C-2.34 47 -1.68 47 -1 47 C-1.00523682 46.32235596 -1.01047363 45.64471191 -1.01586914 44.9465332 C-1.1159033 29.92747998 -0.89134785 14.99374416 0 0 Z " fill="#F6951F" transform="translate(238,81)"/>
<path d="M0 0 C0.29315478 3.8110121 -0.14115317 6.70707152 -1.4375 10.25 C-3.19586239 15.11867321 -3.68859559 19.85645826 -4 25 C-5.32 25 -6.64 25 -8 25 C-7.690625 26.6396875 -7.690625 26.6396875 -7.375 28.3125 C-7 32 -7 32 -9 35 C-9.99 34.34 -10.98 33.68 -12 33 C-11.33501617 28.61110675 -9.81242323 25.0188515 -8 21 C-7.34 21 -6.68 21 -6 21 C-5.86722656 19.89140625 -5.73445312 18.7828125 -5.59765625 17.640625 C-5.41940243 16.1770673 -5.24100972 14.71352651 -5.0625 13.25 C-4.97548828 12.52039063 -4.88847656 11.79078125 -4.79882812 11.0390625 C-3.91038828 3.79992301 -3.91038828 3.79992301 -3 1 C-1 0 -1 0 0 0 Z " fill="#F28302" transform="translate(171,91)"/>
<path d="M0 0 C0.66 0 1.32 0 2 0 C2 2.64 2 5.28 2 8 C1.34 8 0.68 8 0 8 C-0.13277344 9.10859375 -0.26554688 10.2171875 -0.40234375 11.359375 C-0.58059757 12.8229327 -0.75899028 14.28647349 -0.9375 15.75 C-1.02451172 16.47960937 -1.11152344 17.20921875 -1.20117188 17.9609375 C-2.08961172 25.20007699 -2.08961172 25.20007699 -3 28 C-3.66 28.33 -4.32 28.66 -5 29 C-5.65555119 31.52733235 -5.65555119 31.52733235 -6 34 C-6.66 34 -7.32 34 -8 34 C-8 32.02 -8 30.04 -8 28 C-7.34 28 -6.68 28 -6 28 C-6.020625 26.700625 -6.04125 25.40125 -6.0625 24.0625 C-6.08399454 22.70834367 -6.07148199 21.35243917 -6 20 C-5.67 19.67 -5.34 19.34 -5 19 C-4.87625 18.01 -4.7525 17.02 -4.625 16 C-4.04273491 11.45457575 -2.53305299 7.29921382 -1 3 C-0.67 2.01 -0.34 1.02 0 0 Z " fill="#EF861A" transform="translate(168,84)"/>
<path d="M0 0 C1.60922189 4.08602429 0.44387417 7.91705588 -0.43359375 12.046875 C-0.59038101 12.81807678 -0.74716827 13.58927856 -0.90870667 14.3838501 C-1.41018947 16.84098044 -1.92366806 19.29542555 -2.4375 21.75 C-2.78009119 23.41780578 -3.12189735 25.08577303 -3.46289062 26.75390625 C-4.29950371 30.83786534 -5.14688207 34.91945816 -6 39 C-6.33 39 -6.66 39 -7 39 C-6.91874844 35.12416586 -6.80593581 31.2498621 -6.6875 27.375 C-6.66494141 26.28058594 -6.64238281 25.18617187 -6.61914062 24.05859375 C-6.42498268 18.23385527 -6.05283395 14.1067039 -3 9 C-2.51876734 6.75909271 -2.51876734 6.75909271 -2.4375 4.6875 C-2.293125 3.470625 -2.14875 2.25375 -2 1 C-1.34 0.67 -0.68 0.34 0 0 Z " fill="#EC9B4E" transform="translate(285,57)"/>
<path d="M0 0 C0.66 0 1.32 0 2 0 C2.34910893 10.8029818 1.26699248 21.28712612 0 32 C-2.31 32 -4.62 32 -7 32 C-6.625 30.0625 -6.625 30.0625 -6 28 C-5.34 27.67 -4.68 27.34 -4 27 C-3.31068656 24.65092125 -3.31068656 24.65092125 -2.875 21.9375 C-2.70742187 21.01839844 -2.53984375 20.09929687 -2.3671875 19.15234375 C-2.24601562 18.44207031 -2.12484375 17.73179687 -2 17 C-1.34 17 -0.68 17 0 17 C0 11.39 0 5.78 0 0 Z " fill="#3C3029" transform="translate(127,117)"/>
<path d="M0 0 C0.33 0.99 0.66 1.98 1 3 C-0.32 3.33 -1.64 3.66 -3 4 C-3 4.99 -3 5.98 -3 7 C-5.31 6.67 -7.62 6.34 -10 6 C-10 6.66 -10 7.32 -10 8 C-10.66 8 -11.32 8 -12 8 C-11.67 8.99 -11.34 9.98 -11 11 C-12.98 11 -14.96 11 -17 11 C-16.67 10.01 -16.34 9.02 -16 8 C-18.475 7.01 -18.475 7.01 -21 6 C-21 5.01 -21 4.02 -21 3 C-20.0925 3.165 -19.185 3.33 -18.25 3.5 C-11.90024284 4.47688572 -6.20832678 3.27818493 0 2 C0 1.34 0 0.68 0 0 Z " fill="#EC7A0C" transform="translate(242,316)"/>
<path d="M0 0 C0.33 0 0.66 0 1 0 C1.45636453 8.4342927 0.17423358 15.85956596 -2 24 C-2.33 24 -2.66 24 -3 24 C-3.336611 22.22978678 -3.66917293 20.45880326 -4 18.6875 C-4.185625 17.70136719 -4.37125 16.71523437 -4.5625 15.69921875 C-5.17112491 11.94422041 -4.95108168 9.44964703 -3.625 5.9375 C-3.36976563 5.24527344 -3.11453125 4.55304688 -2.8515625 3.83984375 C-2 2 -2 2 0 0 Z " fill="#EB7A15" transform="translate(150,195)"/>
<path d="M0 0 C2.50087168 4.70434575 2.44191746 8.7394825 2 14 C1 17.125 1 17.125 0 19 C-0.33 18.34 -0.66 17.68 -1 17 C-1.66 17 -2.32 17 -3 17 C-2.67 19.64 -2.34 22.28 -2 25 C-2.99 25.33 -3.98 25.66 -5 26 C-5.32784311 19.95949073 -4.13093049 14.85891514 -2.5 9.0625 C-2.26152344 8.18787109 -2.02304688 7.31324219 -1.77734375 6.41210938 C-1.19273616 4.27244561 -0.60015656 2.13534428 0 0 Z " fill="#332E33" transform="translate(152,200)"/>
<path d="M0 0 C2.75150544 2.37630015 4.00551625 4.4994172 5 8 C4.3203125 10.89453125 4.3203125 10.89453125 3.125 13.8125 C2.73570312 14.78832031 2.34640625 15.76414063 1.9453125 16.76953125 C1.63335937 17.50558594 1.32140625 18.24164063 1 19 C0.690625 18.360625 0.38125 17.72125 0.0625 17.0625 C-0.8345163 15.06389179 -0.8345163 15.06389179 -2 14 C-1.78633888 9.29945543 -1.03548394 4.58571459 0 0 Z " fill="#EB7E12" transform="translate(152,162)"/>
<path d="M0 0 C0.33 0 0.66 0 1 0 C1.28571429 7.42857143 1.28571429 7.42857143 -1 11 C-1.99 11 -2.98 11 -4 11 C-4 12.32 -4 13.64 -4 15 C-3.01 15.33 -2.02 15.66 -1 16 C-1 16.66 -1 17.32 -1 18 C-0.34 18 0.32 18 1 18 C1.33 18.99 1.66 19.98 2 21 C-1.90559061 19.73332196 -4.06060687 18.68484694 -6 15 C-6.5287884 12.32012092 -6.77237292 9.73152498 -7 7 C-6.01 7 -5.02 7 -4 7 C-3.67 5.68 -3.34 4.36 -3 3 C-2.34 3 -1.68 3 -1 3 C-0.67 2.01 -0.34 1.02 0 0 Z " fill="#F08E1C" transform="translate(107,305)"/>
<path d="M0 0 C3.87554506 0.22145972 4.9399318 0.93713793 7.6875 3.8125 C11.38694451 8.91173432 12.27671963 11.72564779 12.25 18.125 C12.25515625 19.36507813 12.2603125 20.60515625 12.265625 21.8828125 C12 25 12 25 10 27 C10.33 23.37 10.66 19.74 11 16 C10.01 16 9.02 16 8 16 C8 13.69 8 11.38 8 9 C7.34 8.67 6.68 8.34 6 8 C6 6.68 6 5.36 6 4 C4.35 4 2.7 4 1 4 C0.67 2.68 0.34 1.36 0 0 Z " fill="#E99D56" transform="translate(134,284)"/>
<path d="M0 0 C0 0.33 0 0.66 0 1 C-1.12019531 0.96519531 -2.24039063 0.93039062 -3.39453125 0.89453125 C-4.86717251 0.86639161 -6.33982998 0.83909163 -7.8125 0.8125 C-8.55048828 0.78736328 -9.28847656 0.76222656 -10.04882812 0.73632812 C-14.25227297 0.60139412 -14.25227297 0.60139412 -17.890625 2.43359375 C-18.25671875 2.95050781 -18.6228125 3.46742188 -19 4 C-21.39799071 5.54709078 -22.40313538 6.09947744 -25.25 5.625 C-25.8275 5.41875 -26.405 5.2125 -27 5 C-19.89406437 -2.94192806 -9.68827938 -4.41491212 0 0 Z " fill="#F0B064" transform="translate(136,283)"/>
<path d="M0 0 C0.66 0.33 1.32 0.66 2 1 C1.835 2.155 1.67 3.31 1.5 4.5 C0.96761689 8.69907803 0.92447554 12.77063041 1 17 C-0.32 16.67 -1.64 16.34 -3 16 C-3.144375 14.865625 -3.28875 13.73125 -3.4375 12.5625 C-3.61171478 9.19222799 -3.61171478 9.19222799 -5 8 C-4.71269945 5.66055264 -4.38063221 3.3260857 -4 1 C-3.67 1.99 -3.34 2.98 -3 4 C-2.34 4 -1.68 4 -1 4 C-0.67 2.68 -0.34 1.36 0 0 Z " fill="#FB9613" transform="translate(141,71)"/>
<path d="M0 0 C7.2265322 -0.05058332 14.45301899 -0.08568412 21.6796875 -0.10986328 C24.13966579 -0.11993983 26.59963206 -0.13360131 29.05957031 -0.15087891 C32.58922285 -0.17505461 36.11871747 -0.1864664 39.6484375 -0.1953125 C40.75367767 -0.20563507 41.85891785 -0.21595764 42.99765015 -0.22659302 C44.01855743 -0.22674408 45.03946472 -0.22689514 46.09130859 -0.22705078 C46.99287689 -0.231492 47.89444519 -0.23593323 48.82333374 -0.24050903 C51 0 51 0 53 2 C52.38247864 1.98889694 51.76495728 1.97779388 51.12872314 1.96635437 C44.7051031 1.85578943 38.28175301 1.78034463 31.85742188 1.7253418 C29.45952375 1.70018788 27.06170236 1.66606081 24.6640625 1.62280273 C21.21855751 1.56219265 17.77406554 1.53379844 14.328125 1.51171875 C13.25508118 1.48591232 12.18203735 1.4601059 11.07647705 1.43351746 C5.08517276 1.28663137 5.08517276 1.28663137 0.29199219 4.53051758 C-0.13436523 5.34544678 -0.56072266 6.16037598 -1 7 C-0.67 4.69 -0.34 2.38 0 0 Z " fill="#464447" transform="translate(257,199)"/>
<path d="M0 0 C0.87454834 0.00523682 1.74909668 0.01047363 2.65014648 0.01586914 C3.59438477 0.0190918 4.53862305 0.02231445 5.51147461 0.02563477 C6.50469727 0.03401367 7.49791992 0.04239258 8.52124023 0.05102539 C9.51833008 0.05553711 10.51541992 0.06004883 11.54272461 0.06469727 C14.01478872 0.07652532 16.48673541 0.0930069 18.95874023 0.11352539 C18.95874023 0.44352539 18.95874023 0.77352539 18.95874023 1.11352539 C8.56374023 1.60852539 8.56374023 1.60852539 -2.04125977 2.11352539 C-2.02063477 3.90790039 -2.00000977 5.70227539 -1.97875977 7.55102539 C-1.95744757 9.40518661 -1.96899475 11.26065038 -2.04125977 13.11352539 C-2.37125977 13.44352539 -2.70125977 13.77352539 -3.04125977 14.11352539 C-3.1970828 15.4536776 -3.29170119 16.80111442 -3.35766602 18.14868164 C-3.42050781 19.36201172 -3.42050781 19.36201172 -3.48461914 20.59985352 C-3.52393555 21.44999023 -3.56325195 22.30012695 -3.60375977 23.17602539 C-3.64694336 24.0300293 -3.69012695 24.8840332 -3.73461914 25.76391602 C-3.84102678 27.88024576 -3.94167708 29.99686352 -4.04125977 32.11352539 C-5.03125977 32.60852539 -5.03125977 32.60852539 -6.04125977 33.11352539 C-5.9296239 29.65462872 -5.79943547 26.1966544 -5.66625977 22.73852539 C-5.63532227 21.77301758 -5.60438477 20.80750977 -5.57250977 19.81274414 C-4.78539826 0.26614163 -4.78539826 0.26614163 0 0 Z " fill="#F49D34" transform="translate(139.041259765625,46.886474609375)"/>
<path d="M0 0 C0.33 0 0.66 0 1 0 C1.12036664 5.77759884 0.8320582 11.27959989 0 17 C-1.32 17 -2.64 17 -4 17 C-5.3899418 13.13905056 -4.88634256 9.95445141 -4 6 C-2 2.5625 -2 2.5625 0 0 Z " fill="#ED861B" transform="translate(278,80)"/>
<path d="M0 0 C0.33 0 0.66 0 1 0 C0.85786703 1.89611434 0.71113093 3.79188394 0.5625 5.6875 C0.48128906 6.74324219 0.40007812 7.79898437 0.31640625 8.88671875 C0 12 0 12 -0.62109375 14.8125 C-0.74613281 15.534375 -0.87117187 16.25625 -1 17 C-0.54625 17.433125 -0.0925 17.86625 0.375 18.3125 C3.03221049 21.07191089 2.69346145 24.26022965 3 28 C-0.83378195 24.54959624 -2.70511741 21.56203189 -3.30078125 16.38671875 C-3.32767646 10.19185495 -2.55968771 5.65264369 0 0 Z " fill="#F1B876" transform="translate(207,295)"/>
<path d="M0 0 C0.66 0.33 1.32 0.66 2 1 C2 1.99 2 2.98 2 4 C2.99 4 3.98 4 5 4 C6.75 6.3125 6.75 6.3125 8 9 C7.67 9.99 7.34 10.98 7 12 C6.52949219 11.65066406 6.05898437 11.30132812 5.57421875 10.94140625 C4.95160156 10.48636719 4.32898438 10.03132813 3.6875 9.5625 C2.76517578 8.88380859 2.76517578 8.88380859 1.82421875 8.19140625 C-0.09677101 6.82663692 -0.09677101 6.82663692 -3 6 C-3 6.99 -3 7.98 -3 9 C-4.32 8.67 -5.64 8.34 -7 8 C-4.69 5.36 -2.38 2.72 0 0 Z " fill="#F8921E" transform="translate(215,286)"/>
<path d="M0 0 C1.98 0.66 3.96 1.32 6 2 C5.125 8.75 5.125 8.75 4 11 C1.69 11 -0.62 11 -3 11 C-2.625 8.5625 -2.625 8.5625 -2 6 C-1.34 5.67 -0.68 5.34 0 5 C0 3.35 0 1.7 0 0 Z " fill="#E9780F" transform="translate(137,234)"/>
<path d="M0 0 C1.22757672 3.68273017 0.65080193 5.43630999 -0.21484375 9.19921875 C-0.48876953 10.40771484 -0.76269531 11.61621094 -1.04492188 12.86132812 C-1.33947266 14.12396484 -1.63402344 15.38660156 -1.9375 16.6875 C-2.22818359 17.96173828 -2.51886719 19.23597656 -2.81835938 20.54882812 C-3.5384989 23.70091426 -4.26598879 26.85112037 -5 30 C-5.33 30 -5.66 30 -6 30 C-6 26.04 -6 22.08 -6 18 C-5.34 18 -4.68 18 -4 18 C-4.33 15.03 -4.66 12.06 -5 9 C-4.34 9 -3.68 9 -3 9 C-2.01 6.03 -1.02 3.06 0 0 Z " fill="#E28F46" transform="translate(261,178)"/>
<path d="M0 0 C0.33 0 0.66 0 1 0 C1.05796132 4.10410755 1.09358313 8.20811016 1.125 12.3125 C1.14175781 13.47974609 1.15851563 14.64699219 1.17578125 15.84960938 C1.18222656 16.96787109 1.18867188 18.08613281 1.1953125 19.23828125 C1.20578613 20.26993408 1.21625977 21.30158691 1.22705078 22.36450195 C1 25 1 25 -1 28 C-2 27 -2 27 -2.03759766 25.05395508 C-1.99683105 24.21759521 -1.95606445 23.38123535 -1.9140625 22.51953125 C-1.87023437 21.60236328 -1.82640625 20.68519531 -1.78125 19.74023438 C-1.7296875 18.77408203 -1.678125 17.80792969 -1.625 16.8125 C-1.58117187 15.86568359 -1.53734375 14.91886719 -1.4921875 13.94335938 C-1.25519731 9.22659628 -0.9209403 4.64372438 0 0 Z " fill="#E49D52" transform="translate(230,176)"/>
<path d="M0 0 C0.99 0 1.98 0 3 0 C1.65113611 9.41030923 -0.06950984 18.69503742 -2 28 C-4 24.25 -4 24.25 -4 22 C-3.34 22 -2.68 22 -2 22 C-2 17.71 -2 13.42 -2 9 C-1.34 9 -0.68 9 0 9 C0 6.03 0 3.06 0 0 Z " fill="#EAA05A" transform="translate(177,58)"/>
<path d="M0 0 C2.64 0.99 5.28 1.98 8 3 C7.67 3.99 7.34 4.98 7 6 C-3.15317287 6.63019694 -3.15317287 6.63019694 -6.6875 4 C-7.120625 3.34 -7.55375 2.68 -8 2 C-5.69 2.33 -3.38 2.66 -1 3 C-0.67 2.01 -0.34 1.02 0 0 Z " fill="#EB8C31" transform="translate(218,321)"/>
<path d="M0 0 C-7.74866802 3.6929822 -14.72256265 5.68877995 -23.125 3 C-23.74375 2.67 -24.3625 2.34 -25 2 C-21.9518293 1.09605972 -19.35620007 0.94772819 -16.1875 1.0625 C-12.92493277 1.11054959 -10.23085676 0.94371709 -7.125 -0.0625 C-3.94139131 -1.01758261 -3.02563471 -0.93650598 0 0 Z " fill="#E7A972" transform="translate(134,325)"/>
<path d="M0 0 C0.33 0 0.66 0 1 0 C0.88562349 2.72998676 0.75888594 5.4584582 0.625 8.1875 C0.5940625 8.95642578 0.563125 9.72535156 0.53125 10.51757812 C0.31092575 14.79554066 -0.24240598 18.04541346 -2 22 C-2.44252057 24.4320759 -2.44252057 24.4320759 -2.625 26.8125 C-2.69976562 27.60269531 -2.77453125 28.39289063 -2.8515625 29.20703125 C-2.90054687 29.79871094 -2.94953125 30.39039063 -3 31 C-3.66 31 -4.32 31 -5 31 C-4.62152298 23.63927459 -3.61645285 16.83199081 -1.69921875 9.71484375 C-0.86541743 6.47745873 -0.37701572 3.31773836 0 0 Z " fill="#4B301D" transform="translate(273,118)"/>
<path d="M0 0 C-2.72973106 1.81982071 -4.86781344 3.08326247 -8 4 C-10.3125 3.125 -10.3125 3.125 -12 2 C-10.68 1.01 -9.36 0.02 -8 -1 C-9.65 -1.33 -11.3 -1.66 -13 -2 C-13 -1.34 -13 -0.68 -13 0 C-14.32 0.33 -15.64 0.66 -17 1 C-17 0.01 -17 -0.98 -17 -2 C-10.53916383 -4.15361206 -5.86221379 -2.87128839 0 0 Z " fill="#F68F1A" transform="translate(241,285)"/>
<path d="M0 0 C0.33 0 0.66 0 1 0 C0.86152362 3.62532066 0.71297357 7.25015904 0.5625 10.875 C0.52318359 11.90753906 0.48386719 12.94007813 0.44335938 14.00390625 C0.40146484 14.99003906 0.35957031 15.97617188 0.31640625 16.9921875 C0.27974854 17.90339355 0.24309082 18.81459961 0.20532227 19.75341797 C0 22 0 22 -1 24 C-1.99 24 -2.98 24 -4 24 C-3.28621973 15.86290495 -1.67226118 7.98268072 0 0 Z " fill="#442B1D" transform="translate(255,208)"/>
<path d="M0 0 C0.66 0 1.32 0 2 0 C3.17829199 3.53487596 2.75665474 5.14485405 2.00390625 8.76171875 C1.77509766 9.87998047 1.54628906 10.99824219 1.31054688 12.15039062 C1.06369141 13.31763672 0.81683594 14.48488281 0.5625 15.6875 C0.31951172 16.86634766 0.07652344 18.04519531 -0.17382812 19.25976562 C-0.77569172 22.17467364 -1.38468019 25.08790804 -2 28 C-2.33 28 -2.66 28 -3 28 C-2.67 22.72 -2.34 17.44 -2 12 C-1.34 12 -0.68 12 0 12 C-0.08378906 11.30132812 -0.16757812 10.60265625 -0.25390625 9.8828125 C-0.35574219 8.97273437 -0.45757812 8.06265625 -0.5625 7.125 C-0.66691406 6.22007812 -0.77132813 5.31515625 -0.87890625 4.3828125 C-1 2 -1 2 0 0 Z " fill="#E79D5D" transform="translate(265,148)"/>
<path d="M0 0 C0.33 0 0.66 0 1 0 C1 3.96 1 7.92 1 12 C1.66 12 2.32 12 3 12 C3 15.3 3 18.6 3 22 C2.34 22 1.68 22 1 22 C-0.71948485 19.03051422 -1.22039127 17.08547775 -0.9765625 13.671875 C-0.89921875 12.47304687 -0.89921875 12.47304687 -0.8203125 11.25 C-0.75585938 10.425 -0.69140625 9.6 -0.625 8.75 C-0.56828125 7.90953125 -0.5115625 7.0690625 -0.453125 6.203125 C-0.31209668 4.13470958 -0.15738212 2.0672354 0 0 Z " fill="#F69628" transform="translate(132,90)"/>
<path d="M0 0 C0.66 0 1.32 0 2 0 C1.67 2.64 1.34 5.28 1 8 C1.66 8.33 2.32 8.66 3 9 C2.34 10.32 1.68 11.64 1 13 C0.01 13 -0.98 13 -2 13 C-3.34465195 5.78777589 -3.34465195 5.78777589 -1.6875 2 C-1.130625 1.34 -0.57375 0.68 0 0 Z " fill="#EA822B" transform="translate(245,306)"/>
<path d="M0 0 C1.32 0 2.64 0 4 0 C7.57954545 10.26136364 7.57954545 10.26136364 6 15 C5.34 15 4.68 15 4 15 C4 12.03 4 9.06 4 6 C2.68 6 1.36 6 0 6 C0 4.02 0 2.04 0 0 Z " fill="#F78F1B" transform="translate(138,106)"/>
<path d="M0 0 C0.66 0 1.32 0 2 0 C1.35299955 9.86675685 -0.87379712 19.3678065 -3 29 C-3.33 29 -3.66 29 -4 29 C-3.93941406 28.40574219 -3.87882813 27.81148437 -3.81640625 27.19921875 C-3.16982122 20.80300071 -2.57215654 14.40328386 -2 8 C-1.34 8 -0.68 8 0 8 C0 5.36 0 2.72 0 0 Z " fill="#C4793E" transform="translate(165,121)"/>
<path d="M0 0 C1.09916562 3.29749685 0.89023727 4.54881363 0.22265625 7.88671875 C0.03896484 8.82451172 -0.14472656 9.76230469 -0.33398438 10.72851562 C-0.53314453 11.70498047 -0.73230469 12.68144531 -0.9375 13.6875 C-1.13279297 14.67556641 -1.32808594 15.66363281 -1.52929688 16.68164062 C-2.01275776 19.12252852 -2.50323966 21.56179009 -3 24 C-3.33 24 -3.66 24 -4 24 C-4.34645572 14.86383442 -4.10326471 8.20652942 0 0 Z " fill="#E9A05D" transform="translate(173,88)"/>
<path d="M0 0 C0.33 0 0.66 0 1 0 C1.33 4.29 1.66 8.58 2 13 C8.93 13.33 15.86 13.66 23 14 C23 14.33 23 14.66 23 15 C15.41 15 7.82 15 0 15 C-0.94644447 11.2142221 -0.9693628 9.04738616 -0.5625 5.25 C-0.46066406 4.26515625 -0.35882813 3.2803125 -0.25390625 2.265625 C-0.17011719 1.51796875 -0.08632812 0.7703125 0 0 Z " fill="#F5C9A1" transform="translate(225,232)"/>
<path d="M0 0 C0.33 0.66 0.66 1.32 1 2 C1.66 2 2.32 2 3 2 C2.40912862 5.60188716 0.98667144 7.50125598 -1.4375 10.1875 C-2.05496094 10.88230469 -2.67242187 11.57710938 -3.30859375 12.29296875 C-5 14 -5 14 -7 15 C-6.67 13.68 -6.34 12.36 -6 11 C-5.34 11 -4.68 11 -4 11 C-4 10.01 -4 9.02 -4 8 C-2.68 7.67 -1.36 7.34 0 7 C-0.66 5.02 -1.32 3.04 -2 1 C-1.34 0.67 -0.68 0.34 0 0 Z " fill="#E39452" transform="translate(141,309)"/>
<path d="M0 0 C7.26 0 14.52 0 22 0 C21.67 3.3 21.34 6.6 21 10 C20.67 10 20.34 10 20 10 C19.67 7.03 19.34 4.06 19 1 C18.15179688 1.17402344 17.30359375 1.34804688 16.4296875 1.52734375 C12.84139045 2.02185849 9.72610117 1.89321337 6.125 1.5625 C4.97257812 1.46066406 3.82015625 1.35882813 2.6328125 1.25390625 C1.76398438 1.17011719 0.89515625 1.08632813 0 1 C0 0.67 0 0.34 0 0 Z " fill="#EA8E2B" transform="translate(265,47)"/>
<path d="M0 0 C0.66 0 1.32 0 2 0 C1.44271087 3.34373475 0.64826111 6.03312999 -1 9 C-3.97 8.505 -3.97 8.505 -7 8 C-7 6.02 -7 4.04 -7 2 C-6.34 2 -5.68 2 -5 2 C-4.67 3.32 -4.34 4.64 -4 6 C-3.34 6 -2.68 6 -2 6 C-1.34 4.02 -0.68 2.04 0 0 Z " fill="#E67A1B" transform="translate(247,236)"/>
<path d="M0 0 C3.53586014 3.17320782 5.58578031 5.16743695 6 10 C4.125 9.75 4.125 9.75 2 9 C-0.11103658 6.04454879 -0.19785783 3.56144099 0 0 Z " fill="#F0861A" transform="translate(128,294)"/>
<path d="M0 0 C0.66 0.33 1.32 0.66 2 1 C2.41772532 6.4304292 1.15507411 11.05716947 -1 16 C-1.66 16.66 -2.32 17.32 -3 18 C-2.6889315 15.93728361 -2.37608484 13.87483534 -2.0625 11.8125 C-1.88847656 10.66394531 -1.71445313 9.51539063 -1.53515625 8.33203125 C-1.08620687 5.53674788 -0.57917838 2.77066414 0 0 Z " fill="#3C2C26" transform="translate(166,126)"/>
<path d="M0 0 C2.5654594 2.5654594 2.54046087 4.47686668 3 8 C1.02 8 -0.96 8 -3 8 C-2.45276317 4.62537285 -1.9451 2.91765 0 0 Z " fill="#25272B" transform="translate(165,141)"/>
<path d="M0 0 C0.33 0 0.66 0 1 0 C1.33 3.63 1.66 7.26 2 11 C1.01 10.67 0.02 10.34 -1 10 C-1.73046875 8.15234375 -1.73046875 8.15234375 -2.1875 5.9375 C-2.34605469 5.20402344 -2.50460937 4.47054687 -2.66796875 3.71484375 C-2.77753906 3.14894531 -2.88710938 2.58304688 -3 2 C-2.01 2 -1.02 2 0 2 C0 1.34 0 0.68 0 0 Z " fill="#F18002" transform="translate(267,126)"/>
<path d="M0 0 C0.66 0 1.32 0 2 0 C2 3.96 2 7.92 2 12 C1.34 12 0.68 12 0 12 C-1.28571429 3.42857143 -1.28571429 3.42857143 0 0 Z " fill="#F38201" transform="translate(244,292)"/>
<path d="M0 0 C0.66 0 1.32 0 2 0 C2.36263859 5.8022175 1.25684543 9.63999211 -1 15 C-1.33 15 -1.66 15 -2 15 C-2.042721 13.33388095 -2.04063832 11.66617115 -2 10 C-1.67 9.67 -1.34 9.34 -1 9 C-0.76807135 7.48530552 -0.58784762 5.96245438 -0.4375 4.4375 C-0.35371094 3.61121094 -0.26992187 2.78492188 -0.18359375 1.93359375 C-0.12300781 1.29550781 -0.06242188 0.65742188 0 0 Z " fill="#CE7731" transform="translate(145,219)"/>
<path d="M0 0 C0 2 0 2 -1.8125 3.875 C-2.534375 4.57625 -3.25625 5.2775 -4 6 C-5.02323436 7.31558703 -6.03126968 8.64377755 -7 10 C-7.75 8.3125 -7.75 8.3125 -8 6 C-3.95348837 0 -3.95348837 0 0 0 Z " fill="#585D67" transform="translate(73,117)"/>
<path d="M0 0 C0.66 0 1.32 0 2 0 C2 1.65 2 3.3 2 5 C1.34 5 0.68 5 0 5 C0.33 5.66 0.66 6.32 1 7 C1.039992 8.99960012 1.04346799 11.00047242 1 13 C-1.12300942 9.46165096 -1.69690596 6.09176955 -2 2 C-1.34 1.34 -0.68 0.68 0 0 Z " fill="#EB8622" transform="translate(173,75)"/>
<path d="M0 0 C0.0825 0.61875 0.165 1.2375 0.25 1.875 C0.81258459 4.18437567 0.81258459 4.18437567 3.0625 5.25 C3.701875 5.4975 4.34125 5.745 5 6 C3.75 7.5625 3.75 7.5625 2 9 C-0.1875 8.6875 -0.1875 8.6875 -2 8 C-1.33333333 5.33333333 -0.66666667 2.66666667 0 0 Z " fill="#FB9B17" transform="translate(137,56)"/>
<path d="M0 0 C0.66 0.33 1.32 0.66 2 1 C0.25 4.875 0.25 4.875 -2 6 C-2.33 6.99 -2.66 7.98 -3 9 C-4.32 8.67 -5.64 8.34 -7 8 C-4.69 5.36 -2.38 2.72 0 0 Z " fill="#F2B066" transform="translate(215,286)"/>
<path d="M0 0 C0 0.33 0 0.66 0 1 C-0.83144531 1.12117188 -1.66289062 1.24234375 -2.51953125 1.3671875 C-3.60621094 1.53476562 -4.69289062 1.70234375 -5.8125 1.875 C-6.89144531 2.03742188 -7.97039062 2.19984375 -9.08203125 2.3671875 C-12.17321793 2.85132338 -12.17321793 2.85132338 -15 5 C-17.1875 4.625 -17.1875 4.625 -19 4 C-12.511583 0.48935892 -7.35174806 -0.55253221 0 0 Z " fill="#F4C78D" transform="translate(236,281)"/>
<path d="M0 0 C2 3 2 3 2 7 C3.65 6.67 5.3 6.34 7 6 C7 6.99 7 7.98 7 9 C4.69 9 2.38 9 0 9 C0 6.03 0 3.06 0 0 Z " fill="#F27F03" transform="translate(121,233)"/>
<path d="M0 0 C0.33 0 0.66 0 1 0 C1.84681133 5.08086796 2.09038099 9.84828377 2 15 C1.01 15.33 0.02 15.66 -1 16 C-0.67 10.72 -0.34 5.44 0 0 Z " fill="#E8A96C" transform="translate(123,183)"/>
<path d="M0 0 C0.33 0 0.66 0 1 0 C0.67 4.29 0.34 8.58 0 13 C-0.99 12.01 -1.98 11.02 -3 10 C-2.71620667 6.40528454 -1.4126173 3.29610702 0 0 Z " fill="#ED7C0F" transform="translate(151,181)"/>
<path d="M0 0 C0.66 0 1.32 0 2 0 C2 3.3 2 6.6 2 10 C1.34 10 0.68 10 0 10 C-1.49106457 7.01787087 -1.11941467 4.28390342 -1 1 C-0.67 0.67 -0.34 0.34 0 0 Z " fill="#F59002" transform="translate(140,112)"/>
<path d="M0 0 C0.66 0 1.32 0 2 0 C2.84454356 3.37817425 3.10844919 5.67465243 2 9 C0.5 7.8125 0.5 7.8125 -1 6 C-1.25 3.375 -1.25 3.375 -1 1 C-0.67 0.67 -0.34 0.34 0 0 Z " fill="#ED7D02" transform="translate(256,176)"/>
<path d="M0 0 C4.75 0.875 4.75 0.875 7 2 C7 2.99 7 3.98 7 5 C4.03 4.505 4.03 4.505 1 4 C0.67 2.68 0.34 1.36 0 0 Z " fill="#F17E00" transform="translate(221,319)"/>
<path d="M0 0 C0.33 0 0.66 0 1 0 C1.027193 1.58323688 1.04648306 3.16661062 1.0625 4.75 C1.07410156 5.63171875 1.08570313 6.5134375 1.09765625 7.421875 C1.00826198 9.7818838 0.66912821 11.74498524 0 14 C-0.99 13.67 -1.98 13.34 -3 13 C-2.67 11.68 -2.34 10.36 -2 9 C-1.34 9 -0.68 9 0 9 C0 7.35 0 5.7 0 4 C-0.66 3.67 -1.32 3.34 -2 3 C-1.34 3 -0.68 3 0 3 C0 2.01 0 1.02 0 0 Z " fill="#ED7A04" transform="translate(248,301)"/>
<path d="M0 0 C0.66 0.33 1.32 0.66 2 1 C1.75 2.875 1.75 2.875 1 5 C-1.0625 6.25 -1.0625 6.25 -3 7 C-3.33 6.01 -3.66 5.02 -4 4 C-2.68 2.68 -1.36 1.36 0 0 Z " fill="#F68F1C" transform="translate(217,298)"/>
<path d="M0 0 C1.65 0 3.3 0 5 0 C5.33 0.99 5.66 1.98 6 3 C5.67 3.66 5.34 4.32 5 5 C2.4375 5.625 2.4375 5.625 0 6 C0 4.02 0 2.04 0 0 Z " fill="#F59523" transform="translate(208,295)"/>
<path d="M0 0 C0.99 0 1.98 0 3 0 C3.33 2.97 3.66 5.94 4 9 C3.34 8.67 2.68 8.34 2 8 C1.375 5.4375 1.375 5.4375 1 3 C0.34 3 -0.32 3 -1 3 C-0.67 2.01 -0.34 1.02 0 0 Z " fill="#F58802" transform="translate(281,48)"/>
<path d="M0 0 C0.185625 0.9590625 0.185625 0.9590625 0.375 1.9375 C0.684375 2.9584375 0.684375 2.9584375 1 4 C1.66 4.33 2.32 4.66 3 5 C2.34 5 1.68 5 1 5 C1 6.65 1 8.3 1 10 C0.01 10.33 -0.98 10.66 -2 11 C-2.24042276 6.91281305 -1.42258812 3.82320557 0 0 Z " fill="#F89213" transform="translate(209,296)"/>
<path d="M0 0 C1.26977059 3.80931176 0.52074507 5.81618993 -0.4375 9.6875 C-0.86869141 11.45673828 -0.86869141 11.45673828 -1.30859375 13.26171875 C-1.65083984 14.61716797 -1.65083984 14.61716797 -2 16 C-3.04702186 12.2735915 -3.07442057 8.86986958 -3 5 C-2.34 5 -1.68 5 -1 5 C-0.67 3.35 -0.34 1.7 0 0 Z " fill="#BB733A" transform="translate(150,203)"/>
<path d="M0 0 C0.99 0.33 1.98 0.66 3 1 C3 4.3 3 7.6 3 11 C2.34 11 1.68 11 1 11 C0.67 7.37 0.34 3.74 0 0 Z " fill="#F48E01" transform="translate(273,49)"/>
<path d="M0 0 C-5.29230769 3.07692308 -5.29230769 3.07692308 -8.875 2.6875 C-9.57625 2.460625 -10.2775 2.23375 -11 2 C-10.67 1.34 -10.34 0.68 -10 0 C-6.35526801 -0.89093449 -3.57257469 -1.23666047 0 0 Z " fill="#E99D5C" transform="translate(134,325)"/>
<path d="M0 0 C0.33 0.66 0.66 1.32 1 2 C-0.45635371 2.22174933 -1.91522956 2.42698698 -3.375 2.625 C-4.18710938 2.74101562 -4.99921875 2.85703125 -5.8359375 2.9765625 C-6.55007812 2.98429687 -7.26421875 2.99203125 -8 3 C-8.66 2.34 -9.32 1.68 -10 1 C-6.78548731 -0.60725635 -3.56387464 -0.05748185 0 0 Z " fill="#F6921F" transform="translate(125,286)"/>
<path d="M0 0 C0.1953125 6.0546875 0.1953125 6.0546875 0 8 C-0.66 8.66 -1.32 9.32 -2 10 C-2.66 7.69 -3.32 5.38 -4 3 C-1.125 0 -1.125 0 0 0 Z " fill="#E47D24" transform="translate(151,195)"/>
<path d="M0 0 C0.66 0 1.32 0 2 0 C2 3.3 2 6.6 2 10 C1.01 10.495 1.01 10.495 0 11 C-1.35015859 6.94952424 -0.62084998 4.2079832 0 0 Z " fill="#EC7F13" transform="translate(144,184)"/>
<path d="M0 0 C0.33 0 0.66 0 1 0 C1.1799928 5.21979128 0.97094808 9.07262981 -1 14 C-2.61949011 11.42786866 -3.04408751 10.32330841 -2.625 7.25 C-2.41875 6.5075 -2.2125 5.765 -2 5 C-1.67 5 -1.34 5 -1 5 C-0.67 3.35 -0.34 1.7 0 0 Z " fill="#E58026" transform="translate(261,170)"/>
<path d="M0 0 C0.99 0.33 1.98 0.66 3 1 C3 1.66 3 2.32 3 3 C3.66 3 4.32 3 5 3 C5 4.32 5 5.64 5 7 C3.68 6.67 2.36 6.34 1 6 C0.67 4.02 0.34 2.04 0 0 Z " fill="#EB841D" transform="translate(137,295)"/>
<path d="M0 0 C2.0625 0.4375 2.0625 0.4375 4 1 C3.67 1.99 3.34 2.98 3 4 C1.35 4.33 -0.3 4.66 -2 5 C-1.125 1.125 -1.125 1.125 0 0 Z " fill="#FB930B" transform="translate(105,294)"/>
<path d="M0 0 C0.66 0.33 1.32 0.66 2 1 C1.1875 3.4375 1.1875 3.4375 0 6 C-0.99 6.33 -1.98 6.66 -3 7 C-3 3 -3 3 -1.5 1.25 C-1.005 0.8375 -0.51 0.425 0 0 Z " fill="#545A65" transform="translate(58,200)"/>
<path d="M0 0 C1.32 0.33 2.64 0.66 4 1 C4 2.98 4 4.96 4 7 C3.01 6.67 2.02 6.34 1 6 C0.67 4.02 0.34 2.04 0 0 Z " fill="#F38402" transform="translate(271,96)"/>
<path d="M0 0 C2.475 0.99 2.475 0.99 5 2 C5 2.66 5 3.32 5 4 C5.66 4 6.32 4 7 4 C7.33 4.99 7.66 5.98 8 7 C4.59679258 5.98823563 3.24274669 5.35156418 1.1875 2.375 C0.795625 1.59125 0.40375 0.8075 0 0 Z " fill="#EBAC71" transform="translate(101,319)"/>
<path d="M0 0 C0.99 0.33 1.98 0.66 3 1 C3.33 3.64 3.66 6.28 4 9 C0.06153846 5.67692308 0.06153846 5.67692308 -0.25 2.25 C-0.1675 1.5075 -0.085 0.765 0 0 Z " fill="#ECA65D" transform="translate(206,314)"/>
<path d="M0 0 C0.99 0 1.98 0 3 0 C2.67 2.97 2.34 5.94 2 9 C-0.29013653 5.5647952 -0.17842973 4.014669 0 0 Z " fill="#EB9E58" transform="translate(275,97)"/>
<path d="M0 0 C0.99 0 1.98 0 3 0 C2.67 1.98 2.34 3.96 2 6 C1.01 5.34 0.02 4.68 -1 4 C-0.67 2.68 -0.34 1.36 0 0 Z " fill="#F98D04" transform="translate(101,308)"/>
<path d="M0 0 C0.66 0 1.32 0 2 0 C2 1.98 2 3.96 2 6 C1.01 6.33 0.02 6.66 -1 7 C-1.04254356 5.00045254 -1.04080783 2.99958364 -1 1 C-0.67 0.67 -0.34 0.34 0 0 Z " fill="#F29227" transform="translate(101,302)"/>
<path d="M0 0 C4.67461851 -0.32613618 7.16674383 0.29417212 11 3 C9 4 9 4 6.8359375 3.44140625 C6.02382812 3.15136719 5.21171875 2.86132812 4.375 2.5625 C3.55773437 2.27503906 2.74046875 1.98757813 1.8984375 1.69140625 C1.27195313 1.46324219 0.64546875 1.23507812 0 1 C0 0.67 0 0.34 0 0 Z " fill="#EDB375" transform="translate(234,282)"/>
<path d="M0 0 C0.33 0 0.66 0 1 0 C1.33 2.97 1.66 5.94 2 9 C1.01 9.33 0.02 9.66 -1 10 C-1.125 3.375 -1.125 3.375 0 0 Z " fill="#432D27" transform="translate(148,216)"/>
<path d="M0 0 C0.99 0.33 1.98 0.66 3 1 C3 1.66 3 2.32 3 3 C2.34 3 1.68 3 1 3 C1 4.65 1 6.3 1 8 C0.34 7.67 -0.32 7.34 -1 7 C-1.04254356 5.00045254 -1.04080783 2.99958364 -1 1 C-0.67 0.67 -0.34 0.34 0 0 Z " fill="#EB790E" transform="translate(144,216)"/>
<path d="M0 0 C-0.33 2.31 -0.66 4.62 -1 7 C-1.66 7 -2.32 7 -3 7 C-3.33 5.35 -3.66 3.7 -4 2 C-1 0 -1 0 0 0 Z " fill="#EB7F17" transform="translate(159,155)"/>
<path d="M0 0 C-1.28965176 1.37562854 -2.62689293 2.70766393 -4 4 C-4.66 4 -5.32 4 -6 4 C-6 2.68 -6 1.36 -6 0 C-3 -1 -3 -1 0 0 Z " fill="#E59150" transform="translate(245,320)"/>
<path d="M0 0 C0 0.33 0 0.66 0 1 C-1.98 1 -3.96 1 -6 1 C-6 1.66 -6 2.32 -6 3 C-7.32 3.33 -8.64 3.66 -10 4 C-10 3.01 -10 2.02 -10 1 C-6.52674819 -0.1577506 -3.63932552 -0.06866652 0 0 Z " fill="#EE9635" transform="translate(234,282)"/>
<path d="M0 0 C1.10844919 3.32534757 0.84454356 5.62182575 0 9 C-2.1519437 5.77208445 -2.20086443 4.71599191 -2 1 C-1.34 0.67 -0.68 0.34 0 0 Z " fill="#EAA85F" transform="translate(285,57)"/>
<path d="M0 0 C2 1 2 1 2 1 Z " fill="#FFFFFF" transform="translate(304,40)"/>
<path d="" fill="#FFFFFF" transform="translate(0,0)"/>
<path d="" fill="#FFFFFF" transform="translate(0,0)"/>
<path d="" fill="#FFFFFF" transform="translate(0,0)"/>
<path d="" fill="#FFFFFF" transform="translate(0,0)"/>
<path d="" fill="#FFFFFF" transform="translate(0,0)"/>
<path d="" fill="#FFFFFF" transform="translate(0,0)"/>
<path d="" fill="#FFFFFF" transform="translate(0,0)"/>
<path d="" fill="#FFFFFF" transform="translate(0,0)"/>
<path d="" fill="#FFFFFF" transform="translate(0,0)"/>
<path d="" fill="#FFFFFF" transform="translate(0,0)"/>
<path d="" fill="#FFFFFF" transform="translate(0,0)"/>
<path d="" fill="#FFFFFF" transform="translate(0,0)"/>
<path d="" fill="#FFFFFF" transform="translate(0,0)"/>
<path d="" fill="#FFFFFF" transform="translate(0,0)"/>
<path d="" fill="#FFFFFF" transform="translate(0,0)"/>
<path d="" fill="#FFFFFF" transform="translate(0,0)"/>
<path d="" fill="#FFFFFF" transform="translate(0,0)"/>
<path d="" fill="#FFFFFF" transform="translate(0,0)"/>
<path d="" fill="#FFFFFF" transform="translate(0,0)"/>
<path d="" fill="#FFFFFF" transform="translate(0,0)"/>
<path d="" fill="#FFFFFF" transform="translate(0,0)"/>
<path d="" fill="#FFFFFF" transform="translate(0,0)"/>
<path d="" fill="#FFFFFF" transform="translate(0,0)"/>
<path d="" fill="#FFFFFF" transform="translate(0,0)"/>
<path d="" fill="#FFFFFF" transform="translate(0,0)"/>
<path d="" fill="#FFFFFF" transform="translate(0,0)"/>
<path d="" fill="#FFFFFF" transform="translate(0,0)"/>
<path d="" fill="#FFFFFF" transform="translate(0,0)"/>
<path d="" fill="#FFFFFF" transform="translate(0,0)"/>
<path d="" fill="#FFFFFF" transform="translate(0,0)"/>
<path d="" fill="#FFFFFF" transform="translate(0,0)"/>
<path d="" fill="#FFFFFF" transform="translate(0,0)"/>
<path d="" fill="#FFFFFF" transform="translate(0,0)"/>
<path d="" fill="#FFFFFF" transform="translate(0,0)"/>
<path d="" fill="#FFFFFF" transform="translate(0,0)"/>
<path d="" fill="#FF00FF" transform="translate(0,0)"/>
<path d="" fill="#FFFFFF" transform="translate(0,0)"/>
<path d="" fill="#FFFFFF" transform="translate(0,0)"/>
<path d="" fill="#FFFFFF" transform="translate(0,0)"/>
<path d="" fill="#FFFFFF" transform="translate(0,0)"/>
<path d="" fill="#FFFFFF" transform="translate(0,0)"/>
<path d="" fill="#FFFFFF" transform="translate(0,0)"/>
<path d="" fill="#FFFFFF" transform="translate(0,0)"/>
<path d="" fill="#FFFFFF" transform="translate(0,0)"/>
<path d="" fill="#FFFFFF" transform="translate(0,0)"/>
<path d="" fill="#FFFFFF" transform="translate(0,0)"/>
<path d="" fill="#FFFFFF" transform="translate(0,0)"/>
</svg>
